%TF.GenerationSoftware,KiCad,Pcbnew,8.0.3*%
%TF.CreationDate,2025-01-13T21:40:43+02:00*%
%TF.ProjectId,DST1,44535431-2e6b-4696-9361-645f70636258,rev?*%
%TF.SameCoordinates,Original*%
%TF.FileFunction,Legend,Top*%
%TF.FilePolarity,Positive*%
%FSLAX46Y46*%
G04 Gerber Fmt 4.6, Leading zero omitted, Abs format (unit mm)*
G04 Created by KiCad (PCBNEW 8.0.3) date 2025-01-13 21:40:43*
%MOMM*%
%LPD*%
G01*
G04 APERTURE LIST*
%ADD10C,0.000000*%
%ADD11C,0.500000*%
%ADD12C,0.300000*%
%ADD13C,0.250000*%
%ADD14C,0.150000*%
%ADD15C,0.100000*%
%ADD16C,0.120000*%
%ADD17C,0.200000*%
G04 APERTURE END LIST*
D10*
G36*
X169109777Y-121658667D02*
G01*
X168714667Y-121658667D01*
X168714667Y-122448889D01*
X169109777Y-122448889D01*
X169109777Y-121658667D01*
X169504889Y-121658667D01*
X169504889Y-122448889D01*
X169900000Y-122448889D01*
X169900000Y-122053778D01*
X170295111Y-122053778D01*
X170295111Y-122844000D01*
X170690222Y-122844000D01*
X170690222Y-123239111D01*
X171085333Y-123239111D01*
X171085333Y-122844000D01*
X170690222Y-122844000D01*
X170690222Y-122053778D01*
X171085333Y-122053778D01*
X171085333Y-122448889D01*
X171480444Y-122448889D01*
X171480444Y-122053778D01*
X171875556Y-122053778D01*
X171875556Y-122448889D01*
X172270666Y-122448889D01*
X172270666Y-122844000D01*
X172665777Y-122844000D01*
X172665777Y-123239111D01*
X172270666Y-123239111D01*
X172270666Y-123634222D01*
X172665777Y-123634222D01*
X172665777Y-124029334D01*
X172270666Y-124029334D01*
X172270666Y-125214667D01*
X171480444Y-125214667D01*
X171480444Y-124424444D01*
X171085333Y-124424444D01*
X171085333Y-125609778D01*
X170295111Y-125609778D01*
X170295111Y-125214667D01*
X170690222Y-125214667D01*
X170690222Y-124819556D01*
X170295111Y-124819556D01*
X170295111Y-125214667D01*
X169900000Y-125214667D01*
X169900000Y-125609778D01*
X169109777Y-125609778D01*
X169109777Y-126004889D01*
X168319555Y-126004889D01*
X168319555Y-126400000D01*
X169900000Y-126400000D01*
X169900000Y-126004889D01*
X171085333Y-126004889D01*
X171085333Y-126400000D01*
X170690222Y-126400000D01*
X170690222Y-126795111D01*
X169109777Y-126795111D01*
X169109777Y-127190223D01*
X168319555Y-127190223D01*
X168319555Y-127585333D01*
X168714667Y-127585333D01*
X168714667Y-127980444D01*
X168319555Y-127980444D01*
X168319555Y-129165778D01*
X168714667Y-129165778D01*
X168714667Y-129560889D01*
X167924444Y-129560889D01*
X167924444Y-129956000D01*
X167529333Y-129956000D01*
X167529333Y-129165778D01*
X167924444Y-129165778D01*
X167924444Y-128375556D01*
X167529333Y-128375556D01*
X167529333Y-127980444D01*
X165553778Y-127980444D01*
X165553778Y-127585333D01*
X165553778Y-127190223D01*
X166739111Y-127190223D01*
X166739111Y-127585333D01*
X167529333Y-127585333D01*
X167529333Y-127980444D01*
X167924444Y-127980444D01*
X167924444Y-127190223D01*
X168319555Y-127190223D01*
X168319555Y-126795111D01*
X167924444Y-126795111D01*
X167924444Y-127190223D01*
X166739111Y-127190223D01*
X166739111Y-126795111D01*
X165948889Y-126795111D01*
X165948889Y-126400000D01*
X165553778Y-126400000D01*
X165553778Y-126004889D01*
X166344000Y-126004889D01*
X166344000Y-126400000D01*
X166739111Y-126400000D01*
X166739111Y-126795111D01*
X167924444Y-126795111D01*
X167924444Y-126400000D01*
X167529333Y-126400000D01*
X167529333Y-126004889D01*
X167134222Y-126004889D01*
X167134222Y-125609778D01*
X166739111Y-125609778D01*
X166739111Y-126004889D01*
X166344000Y-126004889D01*
X166344000Y-125214667D01*
X165948889Y-125214667D01*
X165948889Y-125609778D01*
X165553778Y-125609778D01*
X165553778Y-124819556D01*
X166739111Y-124819556D01*
X166739111Y-125214667D01*
X167134222Y-125214667D01*
X167529333Y-125214667D01*
X167529333Y-125609778D01*
X168319555Y-125609778D01*
X168319555Y-125214667D01*
X169504889Y-125214667D01*
X169504889Y-124819556D01*
X168714667Y-124819556D01*
X168714667Y-124424444D01*
X168319555Y-124424444D01*
X168319555Y-125214667D01*
X167529333Y-125214667D01*
X167134222Y-125214667D01*
X167134222Y-124819556D01*
X166739111Y-124819556D01*
X166739111Y-124424444D01*
X167134222Y-124424444D01*
X167134222Y-124819556D01*
X167924444Y-124819556D01*
X167924444Y-124424444D01*
X167529333Y-124424444D01*
X167529333Y-124029334D01*
X168319555Y-124029334D01*
X168319555Y-123634222D01*
X169109777Y-123634222D01*
X169109777Y-124029334D01*
X169504889Y-124029334D01*
X169504889Y-123634222D01*
X169900000Y-123634222D01*
X169900000Y-124819556D01*
X170295111Y-124819556D01*
X170295111Y-124424444D01*
X171085333Y-124424444D01*
X171085333Y-124029334D01*
X171480444Y-124029334D01*
X171480444Y-124424444D01*
X171875556Y-124424444D01*
X171875556Y-122844000D01*
X171480444Y-122844000D01*
X171480444Y-123239111D01*
X171085333Y-123239111D01*
X171085333Y-124029334D01*
X170295111Y-124029334D01*
X170295111Y-123634222D01*
X169900000Y-123634222D01*
X169504889Y-123634222D01*
X169109777Y-123634222D01*
X169109777Y-123239111D01*
X169504889Y-123239111D01*
X169504889Y-122844000D01*
X169900000Y-122844000D01*
X169900000Y-123239111D01*
X170295111Y-123239111D01*
X170295111Y-122844000D01*
X169900000Y-122844000D01*
X169504889Y-122844000D01*
X169504889Y-122448889D01*
X169109777Y-122448889D01*
X169109777Y-123239111D01*
X168319555Y-123239111D01*
X168319555Y-123634222D01*
X167529333Y-123634222D01*
X167529333Y-123239111D01*
X167924444Y-123239111D01*
X167924444Y-122844000D01*
X168319555Y-122844000D01*
X168319555Y-121658667D01*
X168714667Y-121658667D01*
X168714667Y-121263556D01*
X169109777Y-121263556D01*
X169109777Y-121658667D01*
G37*
G36*
X171480444Y-120473334D02*
G01*
X171085333Y-120473334D01*
X171085333Y-119683111D01*
X171480444Y-119683111D01*
X171480444Y-120473334D01*
G37*
G36*
X169504889Y-129956000D02*
G01*
X169109777Y-129956000D01*
X169109777Y-129560889D01*
X169504889Y-129560889D01*
X169504889Y-129956000D01*
G37*
G36*
X167134222Y-122448889D02*
G01*
X164368444Y-122448889D01*
X164368444Y-122053778D01*
X164368444Y-120078222D01*
X164763555Y-120078222D01*
X164763555Y-122053778D01*
X166739111Y-122053778D01*
X166739111Y-120078222D01*
X164763555Y-120078222D01*
X164368444Y-120078222D01*
X164368444Y-119683111D01*
X167134222Y-119683111D01*
X167134222Y-122448889D01*
G37*
G36*
X167134222Y-124029334D02*
G01*
X166739111Y-124029334D01*
X166739111Y-123634222D01*
X167134222Y-123634222D01*
X167134222Y-124029334D01*
G37*
G36*
X167924444Y-120078222D02*
G01*
X167529333Y-120078222D01*
X167529333Y-119683111D01*
X167924444Y-119683111D01*
X167924444Y-120078222D01*
G37*
G36*
X164763555Y-124424444D02*
G01*
X165553778Y-124424444D01*
X165553778Y-124819556D01*
X165158667Y-124819556D01*
X165158667Y-125609778D01*
X164763555Y-125609778D01*
X164763555Y-124819556D01*
X164368444Y-124819556D01*
X164368444Y-124029334D01*
X164763555Y-124029334D01*
X164763555Y-124424444D01*
G37*
G36*
X173456000Y-123239111D02*
G01*
X175036444Y-123239111D01*
X175036444Y-123634222D01*
X174641333Y-123634222D01*
X174641333Y-124424444D01*
X175036444Y-124424444D01*
X175036444Y-125214667D01*
X175431556Y-125214667D01*
X175431556Y-125609778D01*
X175036444Y-125609778D01*
X175036444Y-126400000D01*
X174641333Y-126400000D01*
X174641333Y-124819556D01*
X173851111Y-124819556D01*
X173851111Y-124029334D01*
X174246222Y-124029334D01*
X174246222Y-123634222D01*
X173060889Y-123634222D01*
X173060889Y-122844000D01*
X173456000Y-122844000D01*
X173456000Y-123239111D01*
G37*
G36*
X175431556Y-124424444D02*
G01*
X175036444Y-124424444D01*
X175036444Y-124029334D01*
X175431556Y-124029334D01*
X175431556Y-124424444D01*
G37*
G36*
X174246222Y-126004889D02*
G01*
X173456000Y-126004889D01*
X173456000Y-125609778D01*
X174246222Y-125609778D01*
X174246222Y-126004889D01*
G37*
G36*
X168714667Y-120868445D02*
G01*
X168319555Y-120868445D01*
X168319555Y-120473334D01*
X167924444Y-120473334D01*
X167924444Y-120078222D01*
X168714667Y-120078222D01*
X168714667Y-120868445D01*
G37*
G36*
X173456000Y-128770667D02*
G01*
X173060889Y-128770667D01*
X173060889Y-128375556D01*
X173456000Y-128375556D01*
X173456000Y-128770667D01*
G37*
G36*
X167924444Y-130746223D02*
G01*
X168319555Y-130746223D01*
X168319555Y-131141334D01*
X167529333Y-131141334D01*
X167529333Y-130351111D01*
X167924444Y-130351111D01*
X167924444Y-130746223D01*
G37*
G36*
X169900000Y-120078222D02*
G01*
X168714667Y-120078222D01*
X168714667Y-119683111D01*
X169900000Y-119683111D01*
X169900000Y-120078222D01*
G37*
G36*
X173456000Y-126795111D02*
G01*
X173851111Y-126795111D01*
X173851111Y-127190223D01*
X175036444Y-127190223D01*
X175036444Y-127585333D01*
X175431556Y-127585333D01*
X175431556Y-126400000D01*
X175826667Y-126400000D01*
X175826667Y-128375556D01*
X175431556Y-128375556D01*
X175431556Y-127980444D01*
X175036444Y-127980444D01*
X175036444Y-128375556D01*
X174641333Y-128375556D01*
X174641333Y-128770667D01*
X174246222Y-128770667D01*
X174246222Y-129165778D01*
X174641333Y-129165778D01*
X174641333Y-128770667D01*
X175036444Y-128770667D01*
X175036444Y-129165778D01*
X174641333Y-129165778D01*
X174641333Y-129560889D01*
X175036444Y-129560889D01*
X175036444Y-129165778D01*
X175431556Y-129165778D01*
X175431556Y-129956000D01*
X175826667Y-129956000D01*
X175826667Y-130351111D01*
X175431556Y-130351111D01*
X175431556Y-130746223D01*
X175036444Y-130746223D01*
X175036444Y-130351111D01*
X174641333Y-130351111D01*
X174641333Y-131141334D01*
X172665777Y-131141334D01*
X172665777Y-130746223D01*
X173060889Y-130746223D01*
X173060889Y-130351111D01*
X173456000Y-130351111D01*
X173456000Y-130746223D01*
X174246222Y-130746223D01*
X174246222Y-129560889D01*
X173851111Y-129560889D01*
X173851111Y-130351111D01*
X173456000Y-130351111D01*
X173456000Y-129560889D01*
X172270666Y-129560889D01*
X172270666Y-129956000D01*
X171480444Y-129956000D01*
X171480444Y-129560889D01*
X171085333Y-129560889D01*
X171085333Y-128770667D01*
X171480444Y-128770667D01*
X171480444Y-129165778D01*
X172270666Y-129165778D01*
X172270666Y-128770667D01*
X171875556Y-128770667D01*
X171875556Y-127980444D01*
X172665777Y-127980444D01*
X172665777Y-129165778D01*
X173851111Y-129165778D01*
X173851111Y-128375556D01*
X173851111Y-127980444D01*
X172665777Y-127980444D01*
X171875556Y-127980444D01*
X171875556Y-127585333D01*
X173060889Y-127585333D01*
X174246222Y-127585333D01*
X174246222Y-128375556D01*
X174641333Y-128375556D01*
X174641333Y-127585333D01*
X174246222Y-127585333D01*
X173060889Y-127585333D01*
X173060889Y-126795111D01*
X172665777Y-126795111D01*
X172665777Y-127190223D01*
X172270666Y-127190223D01*
X172270666Y-126795111D01*
X171875556Y-126795111D01*
X171875556Y-126400000D01*
X173456000Y-126400000D01*
X173456000Y-126795111D01*
G37*
G36*
X174641333Y-126795111D02*
G01*
X173851111Y-126795111D01*
X173851111Y-126400000D01*
X174641333Y-126400000D01*
X174641333Y-126795111D01*
G37*
G36*
X166344000Y-124424444D02*
G01*
X165948889Y-124424444D01*
X165948889Y-124029334D01*
X165553778Y-124029334D01*
X165553778Y-123634222D01*
X165948889Y-123634222D01*
X165948889Y-123239111D01*
X165553778Y-123239111D01*
X165553778Y-123634222D01*
X165158667Y-123634222D01*
X165158667Y-123239111D01*
X165553778Y-123239111D01*
X165553778Y-122844000D01*
X166344000Y-122844000D01*
X166344000Y-124424444D01*
G37*
G36*
X170690222Y-120473334D02*
G01*
X170295111Y-120473334D01*
X170295111Y-121263556D01*
X170690222Y-121263556D01*
X170690222Y-120473334D01*
X171085333Y-120473334D01*
X171085333Y-121263556D01*
X171875556Y-121263556D01*
X171875556Y-121658667D01*
X170295111Y-121658667D01*
X170295111Y-121263556D01*
X169900000Y-121263556D01*
X169900000Y-120868445D01*
X169504889Y-120868445D01*
X169504889Y-121263556D01*
X169109777Y-121263556D01*
X169109777Y-120473334D01*
X169900000Y-120473334D01*
X169900000Y-120078222D01*
X170295111Y-120078222D01*
X170295111Y-119683111D01*
X170690222Y-119683111D01*
X170690222Y-120473334D01*
G37*
G36*
X171480444Y-126795111D02*
G01*
X171085333Y-126795111D01*
X171085333Y-126400000D01*
X171480444Y-126400000D01*
X171480444Y-126795111D01*
G37*
G36*
X175826667Y-124819556D02*
G01*
X175431556Y-124819556D01*
X175431556Y-124424444D01*
X175826667Y-124424444D01*
X175826667Y-124819556D01*
G37*
G36*
X172665777Y-121263556D02*
G01*
X172270666Y-121263556D01*
X172270666Y-120473334D01*
X172665777Y-120473334D01*
X172665777Y-121263556D01*
G37*
G36*
X167924444Y-122844000D02*
G01*
X167529333Y-122844000D01*
X167529333Y-122053778D01*
X167924444Y-122053778D01*
X167924444Y-122844000D01*
G37*
G36*
X167134222Y-123239111D02*
G01*
X166739111Y-123239111D01*
X166739111Y-122844000D01*
X167134222Y-122844000D01*
X167134222Y-123239111D01*
G37*
G36*
X171085333Y-128375556D02*
G01*
X170690222Y-128375556D01*
X170690222Y-127980444D01*
X171085333Y-127980444D01*
X171085333Y-128375556D01*
G37*
G36*
X167134222Y-131141334D02*
G01*
X164368444Y-131141334D01*
X164368444Y-130746223D01*
X164368444Y-128770667D01*
X164763555Y-128770667D01*
X164763555Y-130746223D01*
X166739111Y-130746223D01*
X166739111Y-128770667D01*
X164763555Y-128770667D01*
X164368444Y-128770667D01*
X164368444Y-128375556D01*
X167134222Y-128375556D01*
X167134222Y-131141334D01*
G37*
G36*
X165158667Y-123239111D02*
G01*
X164763555Y-123239111D01*
X164763555Y-123634222D01*
X164368444Y-123634222D01*
X164368444Y-122844000D01*
X165158667Y-122844000D01*
X165158667Y-123239111D01*
G37*
G36*
X169504889Y-127585333D02*
G01*
X169900000Y-127585333D01*
X169900000Y-127190223D01*
X170690222Y-127190223D01*
X170690222Y-127980444D01*
X170295111Y-127980444D01*
X170295111Y-128375556D01*
X170690222Y-128375556D01*
X170690222Y-129956000D01*
X171480444Y-129956000D01*
X171480444Y-130351111D01*
X171875556Y-130351111D01*
X171875556Y-130746223D01*
X172270666Y-130746223D01*
X172270666Y-131141334D01*
X170295111Y-131141334D01*
X170295111Y-130746223D01*
X169504889Y-130746223D01*
X169504889Y-131141334D01*
X168714667Y-131141334D01*
X168714667Y-130746223D01*
X169109777Y-130746223D01*
X169109777Y-130351111D01*
X169900000Y-130351111D01*
X170690222Y-130351111D01*
X170690222Y-130746223D01*
X171085333Y-130746223D01*
X171085333Y-130351111D01*
X170690222Y-130351111D01*
X169900000Y-130351111D01*
X169900000Y-129956000D01*
X170295111Y-129956000D01*
X170295111Y-129560889D01*
X169504889Y-129560889D01*
X169504889Y-129165778D01*
X169900000Y-129165778D01*
X169900000Y-127980444D01*
X169109777Y-127980444D01*
X169109777Y-127190223D01*
X169504889Y-127190223D01*
X169504889Y-127585333D01*
G37*
G36*
X171085333Y-127190223D02*
G01*
X170690222Y-127190223D01*
X170690222Y-126795111D01*
X171085333Y-126795111D01*
X171085333Y-127190223D01*
G37*
G36*
X172270666Y-126004889D02*
G01*
X171875556Y-126004889D01*
X171875556Y-125609778D01*
X172270666Y-125609778D01*
X172270666Y-126004889D01*
G37*
G36*
X165158667Y-126795111D02*
G01*
X165553778Y-126795111D01*
X165553778Y-127190223D01*
X165158667Y-127190223D01*
X165158667Y-127980444D01*
X164368444Y-127980444D01*
X164368444Y-126400000D01*
X165158667Y-126400000D01*
X165158667Y-126795111D01*
G37*
G36*
X173060889Y-130351111D02*
G01*
X172665777Y-130351111D01*
X172665777Y-129956000D01*
X173060889Y-129956000D01*
X173060889Y-130351111D01*
G37*
G36*
X175036444Y-121658667D02*
G01*
X173851111Y-121658667D01*
X173851111Y-120473334D01*
X175036444Y-120473334D01*
X175036444Y-121658667D01*
G37*
G36*
X166344000Y-121658667D02*
G01*
X165158667Y-121658667D01*
X165158667Y-120473334D01*
X166344000Y-120473334D01*
X166344000Y-121658667D01*
G37*
G36*
X164763555Y-126004889D02*
G01*
X164368444Y-126004889D01*
X164368444Y-125609778D01*
X164763555Y-125609778D01*
X164763555Y-126004889D01*
G37*
G36*
X171875556Y-126400000D02*
G01*
X171480444Y-126400000D01*
X171480444Y-126004889D01*
X171875556Y-126004889D01*
X171875556Y-126400000D01*
G37*
G36*
X171875556Y-120868445D02*
G01*
X171480444Y-120868445D01*
X171480444Y-120473334D01*
X171875556Y-120473334D01*
X171875556Y-120868445D01*
G37*
G36*
X172270666Y-120473334D02*
G01*
X171875556Y-120473334D01*
X171875556Y-119683111D01*
X172270666Y-119683111D01*
X172270666Y-120473334D01*
G37*
G36*
X175826667Y-123634222D02*
G01*
X175431556Y-123634222D01*
X175431556Y-122844000D01*
X175826667Y-122844000D01*
X175826667Y-123634222D01*
G37*
G36*
X173060889Y-124819556D02*
G01*
X172665777Y-124819556D01*
X172665777Y-124424444D01*
X173060889Y-124424444D01*
X173060889Y-124819556D01*
G37*
G36*
X166344000Y-130351111D02*
G01*
X165158667Y-130351111D01*
X165158667Y-129165778D01*
X166344000Y-129165778D01*
X166344000Y-130351111D01*
G37*
G36*
X173060889Y-126004889D02*
G01*
X172665777Y-126004889D01*
X172665777Y-125609778D01*
X173060889Y-125609778D01*
X173060889Y-126004889D01*
G37*
G36*
X175826667Y-122448889D02*
G01*
X173060889Y-122448889D01*
X173060889Y-122053778D01*
X173060889Y-120078222D01*
X173456000Y-120078222D01*
X173456000Y-122053778D01*
X175431556Y-122053778D01*
X175431556Y-120078222D01*
X173456000Y-120078222D01*
X173060889Y-120078222D01*
X173060889Y-119683111D01*
X175826667Y-119683111D01*
X175826667Y-122448889D01*
G37*
G36*
X168319555Y-121658667D02*
G01*
X167924444Y-121658667D01*
X167924444Y-121263556D01*
X168319555Y-121263556D01*
X168319555Y-121658667D01*
G37*
G36*
X173456000Y-125609778D02*
G01*
X173060889Y-125609778D01*
X173060889Y-125214667D01*
X173456000Y-125214667D01*
X173456000Y-125609778D01*
G37*
G36*
X168714667Y-130746223D02*
G01*
X168319555Y-130746223D01*
X168319555Y-130351111D01*
X168714667Y-130351111D01*
X168714667Y-130746223D01*
G37*
G36*
X167134222Y-126400000D02*
G01*
X166739111Y-126400000D01*
X166739111Y-126004889D01*
X167134222Y-126004889D01*
X167134222Y-126400000D01*
G37*
G36*
X172665777Y-122448889D02*
G01*
X172270666Y-122448889D01*
X172270666Y-121658667D01*
X172665777Y-121658667D01*
X172665777Y-122448889D01*
G37*
G36*
X169504889Y-128770667D02*
G01*
X169109777Y-128770667D01*
X169109777Y-128375556D01*
X169504889Y-128375556D01*
X169504889Y-128770667D01*
G37*
D11*
X132405137Y-80729238D02*
X132405137Y-78729238D01*
X133357518Y-79395904D02*
X133357518Y-80729238D01*
X133357518Y-79586380D02*
X133452756Y-79491142D01*
X133452756Y-79491142D02*
X133643232Y-79395904D01*
X133643232Y-79395904D02*
X133928947Y-79395904D01*
X133928947Y-79395904D02*
X134119423Y-79491142D01*
X134119423Y-79491142D02*
X134214661Y-79681619D01*
X134214661Y-79681619D02*
X134214661Y-80729238D01*
X135167042Y-79395904D02*
X135167042Y-81395904D01*
X135167042Y-79491142D02*
X135357518Y-79395904D01*
X135357518Y-79395904D02*
X135738471Y-79395904D01*
X135738471Y-79395904D02*
X135928947Y-79491142D01*
X135928947Y-79491142D02*
X136024185Y-79586380D01*
X136024185Y-79586380D02*
X136119423Y-79776857D01*
X136119423Y-79776857D02*
X136119423Y-80348285D01*
X136119423Y-80348285D02*
X136024185Y-80538761D01*
X136024185Y-80538761D02*
X135928947Y-80634000D01*
X135928947Y-80634000D02*
X135738471Y-80729238D01*
X135738471Y-80729238D02*
X135357518Y-80729238D01*
X135357518Y-80729238D02*
X135167042Y-80634000D01*
X137833709Y-79395904D02*
X137833709Y-80729238D01*
X136976566Y-79395904D02*
X136976566Y-80443523D01*
X136976566Y-80443523D02*
X137071804Y-80634000D01*
X137071804Y-80634000D02*
X137262280Y-80729238D01*
X137262280Y-80729238D02*
X137547995Y-80729238D01*
X137547995Y-80729238D02*
X137738471Y-80634000D01*
X137738471Y-80634000D02*
X137833709Y-80538761D01*
X138500376Y-79395904D02*
X139262280Y-79395904D01*
X138786090Y-78729238D02*
X138786090Y-80443523D01*
X138786090Y-80443523D02*
X138881328Y-80634000D01*
X138881328Y-80634000D02*
X139071804Y-80729238D01*
X139071804Y-80729238D02*
X139262280Y-80729238D01*
X141452757Y-79967333D02*
X142976567Y-79967333D01*
X143928947Y-79395904D02*
X145452757Y-79967333D01*
X145452757Y-79967333D02*
X143928947Y-80538761D01*
X160586089Y-78629238D02*
X160967042Y-78629238D01*
X160967042Y-78629238D02*
X161157518Y-78724476D01*
X161157518Y-78724476D02*
X161347994Y-78914952D01*
X161347994Y-78914952D02*
X161443232Y-79295904D01*
X161443232Y-79295904D02*
X161443232Y-79962571D01*
X161443232Y-79962571D02*
X161347994Y-80343523D01*
X161347994Y-80343523D02*
X161157518Y-80534000D01*
X161157518Y-80534000D02*
X160967042Y-80629238D01*
X160967042Y-80629238D02*
X160586089Y-80629238D01*
X160586089Y-80629238D02*
X160395613Y-80534000D01*
X160395613Y-80534000D02*
X160205137Y-80343523D01*
X160205137Y-80343523D02*
X160109899Y-79962571D01*
X160109899Y-79962571D02*
X160109899Y-79295904D01*
X160109899Y-79295904D02*
X160205137Y-78914952D01*
X160205137Y-78914952D02*
X160395613Y-78724476D01*
X160395613Y-78724476D02*
X160586089Y-78629238D01*
X163157518Y-79295904D02*
X163157518Y-80629238D01*
X162300375Y-79295904D02*
X162300375Y-80343523D01*
X162300375Y-80343523D02*
X162395613Y-80534000D01*
X162395613Y-80534000D02*
X162586089Y-80629238D01*
X162586089Y-80629238D02*
X162871804Y-80629238D01*
X162871804Y-80629238D02*
X163062280Y-80534000D01*
X163062280Y-80534000D02*
X163157518Y-80438761D01*
X163824185Y-79295904D02*
X164586089Y-79295904D01*
X164109899Y-78629238D02*
X164109899Y-80343523D01*
X164109899Y-80343523D02*
X164205137Y-80534000D01*
X164205137Y-80534000D02*
X164395613Y-80629238D01*
X164395613Y-80629238D02*
X164586089Y-80629238D01*
X165252756Y-79295904D02*
X165252756Y-81295904D01*
X165252756Y-79391142D02*
X165443232Y-79295904D01*
X165443232Y-79295904D02*
X165824185Y-79295904D01*
X165824185Y-79295904D02*
X166014661Y-79391142D01*
X166014661Y-79391142D02*
X166109899Y-79486380D01*
X166109899Y-79486380D02*
X166205137Y-79676857D01*
X166205137Y-79676857D02*
X166205137Y-80248285D01*
X166205137Y-80248285D02*
X166109899Y-80438761D01*
X166109899Y-80438761D02*
X166014661Y-80534000D01*
X166014661Y-80534000D02*
X165824185Y-80629238D01*
X165824185Y-80629238D02*
X165443232Y-80629238D01*
X165443232Y-80629238D02*
X165252756Y-80534000D01*
X167919423Y-79295904D02*
X167919423Y-80629238D01*
X167062280Y-79295904D02*
X167062280Y-80343523D01*
X167062280Y-80343523D02*
X167157518Y-80534000D01*
X167157518Y-80534000D02*
X167347994Y-80629238D01*
X167347994Y-80629238D02*
X167633709Y-80629238D01*
X167633709Y-80629238D02*
X167824185Y-80534000D01*
X167824185Y-80534000D02*
X167919423Y-80438761D01*
X168586090Y-79295904D02*
X169347994Y-79295904D01*
X168871804Y-78629238D02*
X168871804Y-80343523D01*
X168871804Y-80343523D02*
X168967042Y-80534000D01*
X168967042Y-80534000D02*
X169157518Y-80629238D01*
X169157518Y-80629238D02*
X169347994Y-80629238D01*
X171538471Y-79867333D02*
X173062281Y-79867333D01*
X174014661Y-79295904D02*
X175538471Y-79867333D01*
X175538471Y-79867333D02*
X174014661Y-80438761D01*
D12*
G36*
X164118946Y-115831716D02*
G01*
X164118946Y-114914584D01*
X164076203Y-114799790D01*
X163944312Y-114760711D01*
X162655931Y-114760711D01*
X162655931Y-113955931D01*
X164315561Y-113955931D01*
X164574917Y-113970815D01*
X164818155Y-114023140D01*
X165045657Y-114138255D01*
X165109351Y-114194068D01*
X165252233Y-114394309D01*
X165329169Y-114637827D01*
X165343824Y-114824214D01*
X165343824Y-115831716D01*
X164118946Y-115831716D01*
G37*
G36*
X164118946Y-117491346D02*
G01*
X164118946Y-115741346D01*
X165343824Y-115741346D01*
X165343824Y-117581716D01*
X165316117Y-117833041D01*
X165222694Y-118065739D01*
X165109351Y-118211863D01*
X164887815Y-118356977D01*
X164633411Y-118426744D01*
X164384207Y-118449069D01*
X164315561Y-118450000D01*
X162655931Y-118450000D01*
X162655931Y-117645219D01*
X163944312Y-117645219D01*
X164076203Y-117607362D01*
X164118946Y-117491346D01*
G37*
G36*
X162250488Y-113955931D02*
G01*
X163475366Y-113955931D01*
X163475366Y-118450000D01*
X162250488Y-118450000D01*
X162250488Y-113955931D01*
G37*
G36*
X167604291Y-117420516D02*
G01*
X167604291Y-116784263D01*
X167562770Y-116669469D01*
X167429658Y-116630390D01*
X166757990Y-116630390D01*
X166506649Y-116615049D01*
X166253223Y-116552724D01*
X166038213Y-116414650D01*
X166011828Y-116384926D01*
X165882946Y-116161301D01*
X165822295Y-115911944D01*
X165812770Y-115747452D01*
X165812770Y-114824214D01*
X165840043Y-114572890D01*
X165932006Y-114340191D01*
X166043579Y-114194068D01*
X166263054Y-114048953D01*
X166516790Y-113979187D01*
X166766147Y-113956861D01*
X166834926Y-113955931D01*
X167793579Y-113955931D01*
X168053240Y-113970815D01*
X168296092Y-114023140D01*
X168522072Y-114138255D01*
X168584926Y-114194068D01*
X168725576Y-114394309D01*
X168801310Y-114637827D01*
X168815736Y-114824214D01*
X168815736Y-115362770D01*
X167590858Y-115362770D01*
X167590858Y-114985415D01*
X167548115Y-114870621D01*
X167416224Y-114831542D01*
X167212281Y-114831542D01*
X167079169Y-114870621D01*
X167037648Y-114985415D01*
X167037648Y-115649755D01*
X167079169Y-115765771D01*
X167212281Y-115803628D01*
X167870516Y-115803628D01*
X168122239Y-115818130D01*
X168377215Y-115877044D01*
X168595660Y-116007561D01*
X168622784Y-116035659D01*
X168756410Y-116249796D01*
X168819293Y-116494688D01*
X168829169Y-116658478D01*
X168829169Y-117581716D01*
X168801896Y-117833041D01*
X168709933Y-118065739D01*
X168598360Y-118211863D01*
X168379056Y-118356977D01*
X168125726Y-118426744D01*
X167876865Y-118449069D01*
X167808234Y-118450000D01*
X166855687Y-118450000D01*
X166595797Y-118435116D01*
X166352140Y-118382791D01*
X166124389Y-118267676D01*
X166060676Y-118211863D01*
X165917794Y-118011622D01*
X165840858Y-117768104D01*
X165826203Y-117581716D01*
X165826203Y-117043161D01*
X167052302Y-117043161D01*
X167052302Y-117420516D01*
X167093824Y-117536531D01*
X167226936Y-117574389D01*
X167429658Y-117574389D01*
X167562770Y-117536531D01*
X167604291Y-117420516D01*
G37*
G36*
X169933147Y-114376029D02*
G01*
X171158025Y-114376029D01*
X171158025Y-118450000D01*
X169933147Y-118450000D01*
X169933147Y-114376029D01*
G37*
G36*
X172026308Y-113955931D02*
G01*
X172026308Y-114831542D01*
X169072191Y-114831542D01*
X169072191Y-113955931D01*
X172026308Y-113955931D01*
G37*
G36*
X172200942Y-116735415D02*
G01*
X172200942Y-115929413D01*
X174320969Y-115929413D01*
X174320969Y-116735415D01*
X172200942Y-116735415D01*
G37*
G36*
X176027006Y-113955931D02*
G01*
X176027006Y-114831542D01*
X174584752Y-114831542D01*
X174584752Y-113955931D01*
X176027006Y-113955931D01*
G37*
G36*
X175214898Y-113955931D02*
G01*
X176439776Y-113955931D01*
X176439776Y-118450000D01*
X175214898Y-118450000D01*
X175214898Y-113955931D01*
G37*
X150616415Y-54581423D02*
X151330701Y-54581423D01*
X150973558Y-55831423D02*
X150973558Y-54581423D01*
X151925939Y-55831423D02*
X151806891Y-55771900D01*
X151806891Y-55771900D02*
X151747368Y-55712376D01*
X151747368Y-55712376D02*
X151687844Y-55593328D01*
X151687844Y-55593328D02*
X151687844Y-55236185D01*
X151687844Y-55236185D02*
X151747368Y-55117138D01*
X151747368Y-55117138D02*
X151806891Y-55057614D01*
X151806891Y-55057614D02*
X151925939Y-54998090D01*
X151925939Y-54998090D02*
X152104510Y-54998090D01*
X152104510Y-54998090D02*
X152223558Y-55057614D01*
X152223558Y-55057614D02*
X152283082Y-55117138D01*
X152283082Y-55117138D02*
X152342606Y-55236185D01*
X152342606Y-55236185D02*
X152342606Y-55593328D01*
X152342606Y-55593328D02*
X152283082Y-55712376D01*
X152283082Y-55712376D02*
X152223558Y-55771900D01*
X152223558Y-55771900D02*
X152104510Y-55831423D01*
X152104510Y-55831423D02*
X151925939Y-55831423D01*
X152878320Y-54998090D02*
X152878320Y-55831423D01*
X152878320Y-55117138D02*
X152937843Y-55057614D01*
X152937843Y-55057614D02*
X153056891Y-54998090D01*
X153056891Y-54998090D02*
X153235462Y-54998090D01*
X153235462Y-54998090D02*
X153354510Y-55057614D01*
X153354510Y-55057614D02*
X153414034Y-55176661D01*
X153414034Y-55176661D02*
X153414034Y-55831423D01*
X154485462Y-55771900D02*
X154366414Y-55831423D01*
X154366414Y-55831423D02*
X154128319Y-55831423D01*
X154128319Y-55831423D02*
X154009272Y-55771900D01*
X154009272Y-55771900D02*
X153949748Y-55652852D01*
X153949748Y-55652852D02*
X153949748Y-55176661D01*
X153949748Y-55176661D02*
X154009272Y-55057614D01*
X154009272Y-55057614D02*
X154128319Y-54998090D01*
X154128319Y-54998090D02*
X154366414Y-54998090D01*
X154366414Y-54998090D02*
X154485462Y-55057614D01*
X154485462Y-55057614D02*
X154544986Y-55176661D01*
X154544986Y-55176661D02*
X154544986Y-55295709D01*
X154544986Y-55295709D02*
X153949748Y-55414757D01*
X174281423Y-49083584D02*
X175531423Y-48666917D01*
X175531423Y-48666917D02*
X174281423Y-48250251D01*
X175531423Y-47655012D02*
X175471900Y-47774060D01*
X175471900Y-47774060D02*
X175412376Y-47833583D01*
X175412376Y-47833583D02*
X175293328Y-47893107D01*
X175293328Y-47893107D02*
X174936185Y-47893107D01*
X174936185Y-47893107D02*
X174817138Y-47833583D01*
X174817138Y-47833583D02*
X174757614Y-47774060D01*
X174757614Y-47774060D02*
X174698090Y-47655012D01*
X174698090Y-47655012D02*
X174698090Y-47476441D01*
X174698090Y-47476441D02*
X174757614Y-47357393D01*
X174757614Y-47357393D02*
X174817138Y-47297869D01*
X174817138Y-47297869D02*
X174936185Y-47238345D01*
X174936185Y-47238345D02*
X175293328Y-47238345D01*
X175293328Y-47238345D02*
X175412376Y-47297869D01*
X175412376Y-47297869D02*
X175471900Y-47357393D01*
X175471900Y-47357393D02*
X175531423Y-47476441D01*
X175531423Y-47476441D02*
X175531423Y-47655012D01*
X175531423Y-46524060D02*
X175471900Y-46643108D01*
X175471900Y-46643108D02*
X175352852Y-46702631D01*
X175352852Y-46702631D02*
X174281423Y-46702631D01*
X174698090Y-45512155D02*
X175531423Y-45512155D01*
X174698090Y-46047869D02*
X175352852Y-46047869D01*
X175352852Y-46047869D02*
X175471900Y-45988346D01*
X175471900Y-45988346D02*
X175531423Y-45869298D01*
X175531423Y-45869298D02*
X175531423Y-45690727D01*
X175531423Y-45690727D02*
X175471900Y-45571679D01*
X175471900Y-45571679D02*
X175412376Y-45512155D01*
X175531423Y-44916917D02*
X174698090Y-44916917D01*
X174817138Y-44916917D02*
X174757614Y-44857394D01*
X174757614Y-44857394D02*
X174698090Y-44738346D01*
X174698090Y-44738346D02*
X174698090Y-44559775D01*
X174698090Y-44559775D02*
X174757614Y-44440727D01*
X174757614Y-44440727D02*
X174876661Y-44381203D01*
X174876661Y-44381203D02*
X175531423Y-44381203D01*
X174876661Y-44381203D02*
X174757614Y-44321679D01*
X174757614Y-44321679D02*
X174698090Y-44202632D01*
X174698090Y-44202632D02*
X174698090Y-44024060D01*
X174698090Y-44024060D02*
X174757614Y-43905013D01*
X174757614Y-43905013D02*
X174876661Y-43845489D01*
X174876661Y-43845489D02*
X175531423Y-43845489D01*
X175471900Y-42774060D02*
X175531423Y-42893108D01*
X175531423Y-42893108D02*
X175531423Y-43131203D01*
X175531423Y-43131203D02*
X175471900Y-43250250D01*
X175471900Y-43250250D02*
X175352852Y-43309774D01*
X175352852Y-43309774D02*
X174876661Y-43309774D01*
X174876661Y-43309774D02*
X174757614Y-43250250D01*
X174757614Y-43250250D02*
X174698090Y-43131203D01*
X174698090Y-43131203D02*
X174698090Y-42893108D01*
X174698090Y-42893108D02*
X174757614Y-42774060D01*
X174757614Y-42774060D02*
X174876661Y-42714536D01*
X174876661Y-42714536D02*
X174995709Y-42714536D01*
X174995709Y-42714536D02*
X175114757Y-43309774D01*
X158655233Y-48805012D02*
X158655233Y-47852632D01*
X159131423Y-48328822D02*
X158179042Y-48328822D01*
X159131423Y-47197870D02*
X159131423Y-46959774D01*
X159131423Y-46959774D02*
X159071900Y-46840727D01*
X159071900Y-46840727D02*
X159012376Y-46781203D01*
X159012376Y-46781203D02*
X158833804Y-46662155D01*
X158833804Y-46662155D02*
X158595709Y-46602632D01*
X158595709Y-46602632D02*
X158119519Y-46602632D01*
X158119519Y-46602632D02*
X158000471Y-46662155D01*
X158000471Y-46662155D02*
X157940947Y-46721679D01*
X157940947Y-46721679D02*
X157881423Y-46840727D01*
X157881423Y-46840727D02*
X157881423Y-47078822D01*
X157881423Y-47078822D02*
X157940947Y-47197870D01*
X157940947Y-47197870D02*
X158000471Y-47257393D01*
X158000471Y-47257393D02*
X158119519Y-47316917D01*
X158119519Y-47316917D02*
X158417138Y-47316917D01*
X158417138Y-47316917D02*
X158536185Y-47257393D01*
X158536185Y-47257393D02*
X158595709Y-47197870D01*
X158595709Y-47197870D02*
X158655233Y-47078822D01*
X158655233Y-47078822D02*
X158655233Y-46840727D01*
X158655233Y-46840727D02*
X158595709Y-46721679D01*
X158595709Y-46721679D02*
X158536185Y-46662155D01*
X158536185Y-46662155D02*
X158417138Y-46602632D01*
X157881423Y-46245489D02*
X159131423Y-45828822D01*
X159131423Y-45828822D02*
X157881423Y-45412156D01*
X159131423Y-44043107D02*
X157881423Y-44043107D01*
X157881423Y-44043107D02*
X157881423Y-43745488D01*
X157881423Y-43745488D02*
X157940947Y-43566917D01*
X157940947Y-43566917D02*
X158059995Y-43447869D01*
X158059995Y-43447869D02*
X158179042Y-43388346D01*
X158179042Y-43388346D02*
X158417138Y-43328822D01*
X158417138Y-43328822D02*
X158595709Y-43328822D01*
X158595709Y-43328822D02*
X158833804Y-43388346D01*
X158833804Y-43388346D02*
X158952852Y-43447869D01*
X158952852Y-43447869D02*
X159071900Y-43566917D01*
X159071900Y-43566917D02*
X159131423Y-43745488D01*
X159131423Y-43745488D02*
X159131423Y-44043107D01*
X159012376Y-42078822D02*
X159071900Y-42138346D01*
X159071900Y-42138346D02*
X159131423Y-42316917D01*
X159131423Y-42316917D02*
X159131423Y-42435965D01*
X159131423Y-42435965D02*
X159071900Y-42614536D01*
X159071900Y-42614536D02*
X158952852Y-42733584D01*
X158952852Y-42733584D02*
X158833804Y-42793107D01*
X158833804Y-42793107D02*
X158595709Y-42852631D01*
X158595709Y-42852631D02*
X158417138Y-42852631D01*
X158417138Y-42852631D02*
X158179042Y-42793107D01*
X158179042Y-42793107D02*
X158059995Y-42733584D01*
X158059995Y-42733584D02*
X157940947Y-42614536D01*
X157940947Y-42614536D02*
X157881423Y-42435965D01*
X157881423Y-42435965D02*
X157881423Y-42316917D01*
X157881423Y-42316917D02*
X157940947Y-42138346D01*
X157940947Y-42138346D02*
X158000471Y-42078822D01*
D13*
X130634023Y-49737907D02*
X129384023Y-49737907D01*
X129384023Y-49737907D02*
X129384023Y-49440288D01*
X129384023Y-49440288D02*
X129443547Y-49261717D01*
X129443547Y-49261717D02*
X129562595Y-49142669D01*
X129562595Y-49142669D02*
X129681642Y-49083146D01*
X129681642Y-49083146D02*
X129919738Y-49023622D01*
X129919738Y-49023622D02*
X130098309Y-49023622D01*
X130098309Y-49023622D02*
X130336404Y-49083146D01*
X130336404Y-49083146D02*
X130455452Y-49142669D01*
X130455452Y-49142669D02*
X130574500Y-49261717D01*
X130574500Y-49261717D02*
X130634023Y-49440288D01*
X130634023Y-49440288D02*
X130634023Y-49737907D01*
X130634023Y-48487907D02*
X129800690Y-48487907D01*
X129384023Y-48487907D02*
X129443547Y-48547431D01*
X129443547Y-48547431D02*
X129503071Y-48487907D01*
X129503071Y-48487907D02*
X129443547Y-48428384D01*
X129443547Y-48428384D02*
X129384023Y-48487907D01*
X129384023Y-48487907D02*
X129503071Y-48487907D01*
X130574500Y-47952193D02*
X130634023Y-47833146D01*
X130634023Y-47833146D02*
X130634023Y-47595050D01*
X130634023Y-47595050D02*
X130574500Y-47476003D01*
X130574500Y-47476003D02*
X130455452Y-47416479D01*
X130455452Y-47416479D02*
X130395928Y-47416479D01*
X130395928Y-47416479D02*
X130276880Y-47476003D01*
X130276880Y-47476003D02*
X130217357Y-47595050D01*
X130217357Y-47595050D02*
X130217357Y-47773622D01*
X130217357Y-47773622D02*
X130157833Y-47892669D01*
X130157833Y-47892669D02*
X130038785Y-47952193D01*
X130038785Y-47952193D02*
X129979261Y-47952193D01*
X129979261Y-47952193D02*
X129860214Y-47892669D01*
X129860214Y-47892669D02*
X129800690Y-47773622D01*
X129800690Y-47773622D02*
X129800690Y-47595050D01*
X129800690Y-47595050D02*
X129860214Y-47476003D01*
X129800690Y-47059336D02*
X129800690Y-46583145D01*
X129384023Y-46880764D02*
X130455452Y-46880764D01*
X130455452Y-46880764D02*
X130574500Y-46821241D01*
X130574500Y-46821241D02*
X130634023Y-46702193D01*
X130634023Y-46702193D02*
X130634023Y-46583145D01*
X130634023Y-45987907D02*
X130574500Y-46106955D01*
X130574500Y-46106955D02*
X130514976Y-46166478D01*
X130514976Y-46166478D02*
X130395928Y-46226002D01*
X130395928Y-46226002D02*
X130038785Y-46226002D01*
X130038785Y-46226002D02*
X129919738Y-46166478D01*
X129919738Y-46166478D02*
X129860214Y-46106955D01*
X129860214Y-46106955D02*
X129800690Y-45987907D01*
X129800690Y-45987907D02*
X129800690Y-45809336D01*
X129800690Y-45809336D02*
X129860214Y-45690288D01*
X129860214Y-45690288D02*
X129919738Y-45630764D01*
X129919738Y-45630764D02*
X130038785Y-45571240D01*
X130038785Y-45571240D02*
X130395928Y-45571240D01*
X130395928Y-45571240D02*
X130514976Y-45630764D01*
X130514976Y-45630764D02*
X130574500Y-45690288D01*
X130574500Y-45690288D02*
X130634023Y-45809336D01*
X130634023Y-45809336D02*
X130634023Y-45987907D01*
X130634023Y-45035526D02*
X129800690Y-45035526D01*
X130038785Y-45035526D02*
X129919738Y-44976003D01*
X129919738Y-44976003D02*
X129860214Y-44916479D01*
X129860214Y-44916479D02*
X129800690Y-44797431D01*
X129800690Y-44797431D02*
X129800690Y-44678384D01*
X129800690Y-44440288D02*
X129800690Y-43964097D01*
X129384023Y-44261716D02*
X130455452Y-44261716D01*
X130455452Y-44261716D02*
X130574500Y-44202193D01*
X130574500Y-44202193D02*
X130634023Y-44083145D01*
X130634023Y-44083145D02*
X130634023Y-43964097D01*
X130634023Y-43547430D02*
X129800690Y-43547430D01*
X129384023Y-43547430D02*
X129443547Y-43606954D01*
X129443547Y-43606954D02*
X129503071Y-43547430D01*
X129503071Y-43547430D02*
X129443547Y-43487907D01*
X129443547Y-43487907D02*
X129384023Y-43547430D01*
X129384023Y-43547430D02*
X129503071Y-43547430D01*
X130634023Y-42773621D02*
X130574500Y-42892669D01*
X130574500Y-42892669D02*
X130514976Y-42952192D01*
X130514976Y-42952192D02*
X130395928Y-43011716D01*
X130395928Y-43011716D02*
X130038785Y-43011716D01*
X130038785Y-43011716D02*
X129919738Y-42952192D01*
X129919738Y-42952192D02*
X129860214Y-42892669D01*
X129860214Y-42892669D02*
X129800690Y-42773621D01*
X129800690Y-42773621D02*
X129800690Y-42595050D01*
X129800690Y-42595050D02*
X129860214Y-42476002D01*
X129860214Y-42476002D02*
X129919738Y-42416478D01*
X129919738Y-42416478D02*
X130038785Y-42356954D01*
X130038785Y-42356954D02*
X130395928Y-42356954D01*
X130395928Y-42356954D02*
X130514976Y-42416478D01*
X130514976Y-42416478D02*
X130574500Y-42476002D01*
X130574500Y-42476002D02*
X130634023Y-42595050D01*
X130634023Y-42595050D02*
X130634023Y-42773621D01*
X129800690Y-41821240D02*
X130634023Y-41821240D01*
X129919738Y-41821240D02*
X129860214Y-41761717D01*
X129860214Y-41761717D02*
X129800690Y-41642669D01*
X129800690Y-41642669D02*
X129800690Y-41464098D01*
X129800690Y-41464098D02*
X129860214Y-41345050D01*
X129860214Y-41345050D02*
X129979261Y-41285526D01*
X129979261Y-41285526D02*
X130634023Y-41285526D01*
D14*
X136057142Y-129954819D02*
X135723809Y-129478628D01*
X135485714Y-129954819D02*
X135485714Y-128954819D01*
X135485714Y-128954819D02*
X135866666Y-128954819D01*
X135866666Y-128954819D02*
X135961904Y-129002438D01*
X135961904Y-129002438D02*
X136009523Y-129050057D01*
X136009523Y-129050057D02*
X136057142Y-129145295D01*
X136057142Y-129145295D02*
X136057142Y-129288152D01*
X136057142Y-129288152D02*
X136009523Y-129383390D01*
X136009523Y-129383390D02*
X135961904Y-129431009D01*
X135961904Y-129431009D02*
X135866666Y-129478628D01*
X135866666Y-129478628D02*
X135485714Y-129478628D01*
X137009523Y-129954819D02*
X136438095Y-129954819D01*
X136723809Y-129954819D02*
X136723809Y-128954819D01*
X136723809Y-128954819D02*
X136628571Y-129097676D01*
X136628571Y-129097676D02*
X136533333Y-129192914D01*
X136533333Y-129192914D02*
X136438095Y-129240533D01*
X137342857Y-128954819D02*
X137961904Y-128954819D01*
X137961904Y-128954819D02*
X137628571Y-129335771D01*
X137628571Y-129335771D02*
X137771428Y-129335771D01*
X137771428Y-129335771D02*
X137866666Y-129383390D01*
X137866666Y-129383390D02*
X137914285Y-129431009D01*
X137914285Y-129431009D02*
X137961904Y-129526247D01*
X137961904Y-129526247D02*
X137961904Y-129764342D01*
X137961904Y-129764342D02*
X137914285Y-129859580D01*
X137914285Y-129859580D02*
X137866666Y-129907200D01*
X137866666Y-129907200D02*
X137771428Y-129954819D01*
X137771428Y-129954819D02*
X137485714Y-129954819D01*
X137485714Y-129954819D02*
X137390476Y-129907200D01*
X137390476Y-129907200D02*
X137342857Y-129859580D01*
X157359580Y-117566666D02*
X157407200Y-117614285D01*
X157407200Y-117614285D02*
X157454819Y-117757142D01*
X157454819Y-117757142D02*
X157454819Y-117852380D01*
X157454819Y-117852380D02*
X157407200Y-117995237D01*
X157407200Y-117995237D02*
X157311961Y-118090475D01*
X157311961Y-118090475D02*
X157216723Y-118138094D01*
X157216723Y-118138094D02*
X157026247Y-118185713D01*
X157026247Y-118185713D02*
X156883390Y-118185713D01*
X156883390Y-118185713D02*
X156692914Y-118138094D01*
X156692914Y-118138094D02*
X156597676Y-118090475D01*
X156597676Y-118090475D02*
X156502438Y-117995237D01*
X156502438Y-117995237D02*
X156454819Y-117852380D01*
X156454819Y-117852380D02*
X156454819Y-117757142D01*
X156454819Y-117757142D02*
X156502438Y-117614285D01*
X156502438Y-117614285D02*
X156550057Y-117566666D01*
X157454819Y-117090475D02*
X157454819Y-116899999D01*
X157454819Y-116899999D02*
X157407200Y-116804761D01*
X157407200Y-116804761D02*
X157359580Y-116757142D01*
X157359580Y-116757142D02*
X157216723Y-116661904D01*
X157216723Y-116661904D02*
X157026247Y-116614285D01*
X157026247Y-116614285D02*
X156645295Y-116614285D01*
X156645295Y-116614285D02*
X156550057Y-116661904D01*
X156550057Y-116661904D02*
X156502438Y-116709523D01*
X156502438Y-116709523D02*
X156454819Y-116804761D01*
X156454819Y-116804761D02*
X156454819Y-116995237D01*
X156454819Y-116995237D02*
X156502438Y-117090475D01*
X156502438Y-117090475D02*
X156550057Y-117138094D01*
X156550057Y-117138094D02*
X156645295Y-117185713D01*
X156645295Y-117185713D02*
X156883390Y-117185713D01*
X156883390Y-117185713D02*
X156978628Y-117138094D01*
X156978628Y-117138094D02*
X157026247Y-117090475D01*
X157026247Y-117090475D02*
X157073866Y-116995237D01*
X157073866Y-116995237D02*
X157073866Y-116804761D01*
X157073866Y-116804761D02*
X157026247Y-116709523D01*
X157026247Y-116709523D02*
X156978628Y-116661904D01*
X156978628Y-116661904D02*
X156883390Y-116614285D01*
X136354819Y-60142857D02*
X135878628Y-60476190D01*
X136354819Y-60714285D02*
X135354819Y-60714285D01*
X135354819Y-60714285D02*
X135354819Y-60333333D01*
X135354819Y-60333333D02*
X135402438Y-60238095D01*
X135402438Y-60238095D02*
X135450057Y-60190476D01*
X135450057Y-60190476D02*
X135545295Y-60142857D01*
X135545295Y-60142857D02*
X135688152Y-60142857D01*
X135688152Y-60142857D02*
X135783390Y-60190476D01*
X135783390Y-60190476D02*
X135831009Y-60238095D01*
X135831009Y-60238095D02*
X135878628Y-60333333D01*
X135878628Y-60333333D02*
X135878628Y-60714285D01*
X136354819Y-59190476D02*
X136354819Y-59761904D01*
X136354819Y-59476190D02*
X135354819Y-59476190D01*
X135354819Y-59476190D02*
X135497676Y-59571428D01*
X135497676Y-59571428D02*
X135592914Y-59666666D01*
X135592914Y-59666666D02*
X135640533Y-59761904D01*
X135450057Y-58809523D02*
X135402438Y-58761904D01*
X135402438Y-58761904D02*
X135354819Y-58666666D01*
X135354819Y-58666666D02*
X135354819Y-58428571D01*
X135354819Y-58428571D02*
X135402438Y-58333333D01*
X135402438Y-58333333D02*
X135450057Y-58285714D01*
X135450057Y-58285714D02*
X135545295Y-58238095D01*
X135545295Y-58238095D02*
X135640533Y-58238095D01*
X135640533Y-58238095D02*
X135783390Y-58285714D01*
X135783390Y-58285714D02*
X136354819Y-58857142D01*
X136354819Y-58857142D02*
X136354819Y-58238095D01*
X146671905Y-116554819D02*
X146671905Y-115554819D01*
X146671905Y-115554819D02*
X146910000Y-115554819D01*
X146910000Y-115554819D02*
X147052857Y-115602438D01*
X147052857Y-115602438D02*
X147148095Y-115697676D01*
X147148095Y-115697676D02*
X147195714Y-115792914D01*
X147195714Y-115792914D02*
X147243333Y-115983390D01*
X147243333Y-115983390D02*
X147243333Y-116126247D01*
X147243333Y-116126247D02*
X147195714Y-116316723D01*
X147195714Y-116316723D02*
X147148095Y-116411961D01*
X147148095Y-116411961D02*
X147052857Y-116507200D01*
X147052857Y-116507200D02*
X146910000Y-116554819D01*
X146910000Y-116554819D02*
X146671905Y-116554819D01*
X147624286Y-115650057D02*
X147671905Y-115602438D01*
X147671905Y-115602438D02*
X147767143Y-115554819D01*
X147767143Y-115554819D02*
X148005238Y-115554819D01*
X148005238Y-115554819D02*
X148100476Y-115602438D01*
X148100476Y-115602438D02*
X148148095Y-115650057D01*
X148148095Y-115650057D02*
X148195714Y-115745295D01*
X148195714Y-115745295D02*
X148195714Y-115840533D01*
X148195714Y-115840533D02*
X148148095Y-115983390D01*
X148148095Y-115983390D02*
X147576667Y-116554819D01*
X147576667Y-116554819D02*
X148195714Y-116554819D01*
X152538095Y-114554819D02*
X152538095Y-113554819D01*
X153109523Y-114554819D02*
X152680952Y-113983390D01*
X153109523Y-113554819D02*
X152538095Y-114126247D01*
X135861905Y-110454819D02*
X135861905Y-109454819D01*
X135861905Y-109454819D02*
X136100000Y-109454819D01*
X136100000Y-109454819D02*
X136242857Y-109502438D01*
X136242857Y-109502438D02*
X136338095Y-109597676D01*
X136338095Y-109597676D02*
X136385714Y-109692914D01*
X136385714Y-109692914D02*
X136433333Y-109883390D01*
X136433333Y-109883390D02*
X136433333Y-110026247D01*
X136433333Y-110026247D02*
X136385714Y-110216723D01*
X136385714Y-110216723D02*
X136338095Y-110311961D01*
X136338095Y-110311961D02*
X136242857Y-110407200D01*
X136242857Y-110407200D02*
X136100000Y-110454819D01*
X136100000Y-110454819D02*
X135861905Y-110454819D01*
X137385714Y-110454819D02*
X136814286Y-110454819D01*
X137100000Y-110454819D02*
X137100000Y-109454819D01*
X137100000Y-109454819D02*
X137004762Y-109597676D01*
X137004762Y-109597676D02*
X136909524Y-109692914D01*
X136909524Y-109692914D02*
X136814286Y-109740533D01*
X141938095Y-110454819D02*
X141938095Y-109454819D01*
X142509523Y-110454819D02*
X142080952Y-109883390D01*
X142509523Y-109454819D02*
X141938095Y-110026247D01*
X142233333Y-120459580D02*
X142185714Y-120507200D01*
X142185714Y-120507200D02*
X142042857Y-120554819D01*
X142042857Y-120554819D02*
X141947619Y-120554819D01*
X141947619Y-120554819D02*
X141804762Y-120507200D01*
X141804762Y-120507200D02*
X141709524Y-120411961D01*
X141709524Y-120411961D02*
X141661905Y-120316723D01*
X141661905Y-120316723D02*
X141614286Y-120126247D01*
X141614286Y-120126247D02*
X141614286Y-119983390D01*
X141614286Y-119983390D02*
X141661905Y-119792914D01*
X141661905Y-119792914D02*
X141709524Y-119697676D01*
X141709524Y-119697676D02*
X141804762Y-119602438D01*
X141804762Y-119602438D02*
X141947619Y-119554819D01*
X141947619Y-119554819D02*
X142042857Y-119554819D01*
X142042857Y-119554819D02*
X142185714Y-119602438D01*
X142185714Y-119602438D02*
X142233333Y-119650057D01*
X142804762Y-119983390D02*
X142709524Y-119935771D01*
X142709524Y-119935771D02*
X142661905Y-119888152D01*
X142661905Y-119888152D02*
X142614286Y-119792914D01*
X142614286Y-119792914D02*
X142614286Y-119745295D01*
X142614286Y-119745295D02*
X142661905Y-119650057D01*
X142661905Y-119650057D02*
X142709524Y-119602438D01*
X142709524Y-119602438D02*
X142804762Y-119554819D01*
X142804762Y-119554819D02*
X142995238Y-119554819D01*
X142995238Y-119554819D02*
X143090476Y-119602438D01*
X143090476Y-119602438D02*
X143138095Y-119650057D01*
X143138095Y-119650057D02*
X143185714Y-119745295D01*
X143185714Y-119745295D02*
X143185714Y-119792914D01*
X143185714Y-119792914D02*
X143138095Y-119888152D01*
X143138095Y-119888152D02*
X143090476Y-119935771D01*
X143090476Y-119935771D02*
X142995238Y-119983390D01*
X142995238Y-119983390D02*
X142804762Y-119983390D01*
X142804762Y-119983390D02*
X142709524Y-120031009D01*
X142709524Y-120031009D02*
X142661905Y-120078628D01*
X142661905Y-120078628D02*
X142614286Y-120173866D01*
X142614286Y-120173866D02*
X142614286Y-120364342D01*
X142614286Y-120364342D02*
X142661905Y-120459580D01*
X142661905Y-120459580D02*
X142709524Y-120507200D01*
X142709524Y-120507200D02*
X142804762Y-120554819D01*
X142804762Y-120554819D02*
X142995238Y-120554819D01*
X142995238Y-120554819D02*
X143090476Y-120507200D01*
X143090476Y-120507200D02*
X143138095Y-120459580D01*
X143138095Y-120459580D02*
X143185714Y-120364342D01*
X143185714Y-120364342D02*
X143185714Y-120173866D01*
X143185714Y-120173866D02*
X143138095Y-120078628D01*
X143138095Y-120078628D02*
X143090476Y-120031009D01*
X143090476Y-120031009D02*
X142995238Y-119983390D01*
X151904761Y-71154819D02*
X151571428Y-70678628D01*
X151333333Y-71154819D02*
X151333333Y-70154819D01*
X151333333Y-70154819D02*
X151714285Y-70154819D01*
X151714285Y-70154819D02*
X151809523Y-70202438D01*
X151809523Y-70202438D02*
X151857142Y-70250057D01*
X151857142Y-70250057D02*
X151904761Y-70345295D01*
X151904761Y-70345295D02*
X151904761Y-70488152D01*
X151904761Y-70488152D02*
X151857142Y-70583390D01*
X151857142Y-70583390D02*
X151809523Y-70631009D01*
X151809523Y-70631009D02*
X151714285Y-70678628D01*
X151714285Y-70678628D02*
X151333333Y-70678628D01*
X152190476Y-70154819D02*
X152523809Y-71154819D01*
X152523809Y-71154819D02*
X152857142Y-70154819D01*
X153142857Y-70250057D02*
X153190476Y-70202438D01*
X153190476Y-70202438D02*
X153285714Y-70154819D01*
X153285714Y-70154819D02*
X153523809Y-70154819D01*
X153523809Y-70154819D02*
X153619047Y-70202438D01*
X153619047Y-70202438D02*
X153666666Y-70250057D01*
X153666666Y-70250057D02*
X153714285Y-70345295D01*
X153714285Y-70345295D02*
X153714285Y-70440533D01*
X153714285Y-70440533D02*
X153666666Y-70583390D01*
X153666666Y-70583390D02*
X153095238Y-71154819D01*
X153095238Y-71154819D02*
X153714285Y-71154819D01*
X147271905Y-119004819D02*
X147271905Y-118004819D01*
X147271905Y-118004819D02*
X147510000Y-118004819D01*
X147510000Y-118004819D02*
X147652857Y-118052438D01*
X147652857Y-118052438D02*
X147748095Y-118147676D01*
X147748095Y-118147676D02*
X147795714Y-118242914D01*
X147795714Y-118242914D02*
X147843333Y-118433390D01*
X147843333Y-118433390D02*
X147843333Y-118576247D01*
X147843333Y-118576247D02*
X147795714Y-118766723D01*
X147795714Y-118766723D02*
X147748095Y-118861961D01*
X147748095Y-118861961D02*
X147652857Y-118957200D01*
X147652857Y-118957200D02*
X147510000Y-119004819D01*
X147510000Y-119004819D02*
X147271905Y-119004819D01*
X148176667Y-118004819D02*
X148795714Y-118004819D01*
X148795714Y-118004819D02*
X148462381Y-118385771D01*
X148462381Y-118385771D02*
X148605238Y-118385771D01*
X148605238Y-118385771D02*
X148700476Y-118433390D01*
X148700476Y-118433390D02*
X148748095Y-118481009D01*
X148748095Y-118481009D02*
X148795714Y-118576247D01*
X148795714Y-118576247D02*
X148795714Y-118814342D01*
X148795714Y-118814342D02*
X148748095Y-118909580D01*
X148748095Y-118909580D02*
X148700476Y-118957200D01*
X148700476Y-118957200D02*
X148605238Y-119004819D01*
X148605238Y-119004819D02*
X148319524Y-119004819D01*
X148319524Y-119004819D02*
X148224286Y-118957200D01*
X148224286Y-118957200D02*
X148176667Y-118909580D01*
X142138095Y-118354819D02*
X142138095Y-117354819D01*
X142709523Y-118354819D02*
X142280952Y-117783390D01*
X142709523Y-117354819D02*
X142138095Y-117926247D01*
X148159580Y-104266666D02*
X148207200Y-104314285D01*
X148207200Y-104314285D02*
X148254819Y-104457142D01*
X148254819Y-104457142D02*
X148254819Y-104552380D01*
X148254819Y-104552380D02*
X148207200Y-104695237D01*
X148207200Y-104695237D02*
X148111961Y-104790475D01*
X148111961Y-104790475D02*
X148016723Y-104838094D01*
X148016723Y-104838094D02*
X147826247Y-104885713D01*
X147826247Y-104885713D02*
X147683390Y-104885713D01*
X147683390Y-104885713D02*
X147492914Y-104838094D01*
X147492914Y-104838094D02*
X147397676Y-104790475D01*
X147397676Y-104790475D02*
X147302438Y-104695237D01*
X147302438Y-104695237D02*
X147254819Y-104552380D01*
X147254819Y-104552380D02*
X147254819Y-104457142D01*
X147254819Y-104457142D02*
X147302438Y-104314285D01*
X147302438Y-104314285D02*
X147350057Y-104266666D01*
X147254819Y-103933332D02*
X147254819Y-103314285D01*
X147254819Y-103314285D02*
X147635771Y-103647618D01*
X147635771Y-103647618D02*
X147635771Y-103504761D01*
X147635771Y-103504761D02*
X147683390Y-103409523D01*
X147683390Y-103409523D02*
X147731009Y-103361904D01*
X147731009Y-103361904D02*
X147826247Y-103314285D01*
X147826247Y-103314285D02*
X148064342Y-103314285D01*
X148064342Y-103314285D02*
X148159580Y-103361904D01*
X148159580Y-103361904D02*
X148207200Y-103409523D01*
X148207200Y-103409523D02*
X148254819Y-103504761D01*
X148254819Y-103504761D02*
X148254819Y-103790475D01*
X148254819Y-103790475D02*
X148207200Y-103885713D01*
X148207200Y-103885713D02*
X148159580Y-103933332D01*
X158559580Y-64942857D02*
X158607200Y-64990476D01*
X158607200Y-64990476D02*
X158654819Y-65133333D01*
X158654819Y-65133333D02*
X158654819Y-65228571D01*
X158654819Y-65228571D02*
X158607200Y-65371428D01*
X158607200Y-65371428D02*
X158511961Y-65466666D01*
X158511961Y-65466666D02*
X158416723Y-65514285D01*
X158416723Y-65514285D02*
X158226247Y-65561904D01*
X158226247Y-65561904D02*
X158083390Y-65561904D01*
X158083390Y-65561904D02*
X157892914Y-65514285D01*
X157892914Y-65514285D02*
X157797676Y-65466666D01*
X157797676Y-65466666D02*
X157702438Y-65371428D01*
X157702438Y-65371428D02*
X157654819Y-65228571D01*
X157654819Y-65228571D02*
X157654819Y-65133333D01*
X157654819Y-65133333D02*
X157702438Y-64990476D01*
X157702438Y-64990476D02*
X157750057Y-64942857D01*
X158654819Y-63990476D02*
X158654819Y-64561904D01*
X158654819Y-64276190D02*
X157654819Y-64276190D01*
X157654819Y-64276190D02*
X157797676Y-64371428D01*
X157797676Y-64371428D02*
X157892914Y-64466666D01*
X157892914Y-64466666D02*
X157940533Y-64561904D01*
X158654819Y-63038095D02*
X158654819Y-63609523D01*
X158654819Y-63323809D02*
X157654819Y-63323809D01*
X157654819Y-63323809D02*
X157797676Y-63419047D01*
X157797676Y-63419047D02*
X157892914Y-63514285D01*
X157892914Y-63514285D02*
X157940533Y-63609523D01*
X147404761Y-91350057D02*
X147309523Y-91302438D01*
X147309523Y-91302438D02*
X147214285Y-91207200D01*
X147214285Y-91207200D02*
X147071428Y-91064342D01*
X147071428Y-91064342D02*
X146976190Y-91016723D01*
X146976190Y-91016723D02*
X146880952Y-91016723D01*
X146928571Y-91254819D02*
X146833333Y-91207200D01*
X146833333Y-91207200D02*
X146738095Y-91111961D01*
X146738095Y-91111961D02*
X146690476Y-90921485D01*
X146690476Y-90921485D02*
X146690476Y-90588152D01*
X146690476Y-90588152D02*
X146738095Y-90397676D01*
X146738095Y-90397676D02*
X146833333Y-90302438D01*
X146833333Y-90302438D02*
X146928571Y-90254819D01*
X146928571Y-90254819D02*
X147119047Y-90254819D01*
X147119047Y-90254819D02*
X147214285Y-90302438D01*
X147214285Y-90302438D02*
X147309523Y-90397676D01*
X147309523Y-90397676D02*
X147357142Y-90588152D01*
X147357142Y-90588152D02*
X147357142Y-90921485D01*
X147357142Y-90921485D02*
X147309523Y-91111961D01*
X147309523Y-91111961D02*
X147214285Y-91207200D01*
X147214285Y-91207200D02*
X147119047Y-91254819D01*
X147119047Y-91254819D02*
X146928571Y-91254819D01*
X148309523Y-91254819D02*
X147738095Y-91254819D01*
X148023809Y-91254819D02*
X148023809Y-90254819D01*
X148023809Y-90254819D02*
X147928571Y-90397676D01*
X147928571Y-90397676D02*
X147833333Y-90492914D01*
X147833333Y-90492914D02*
X147738095Y-90540533D01*
X148833333Y-96959580D02*
X148785714Y-97007200D01*
X148785714Y-97007200D02*
X148642857Y-97054819D01*
X148642857Y-97054819D02*
X148547619Y-97054819D01*
X148547619Y-97054819D02*
X148404762Y-97007200D01*
X148404762Y-97007200D02*
X148309524Y-96911961D01*
X148309524Y-96911961D02*
X148261905Y-96816723D01*
X148261905Y-96816723D02*
X148214286Y-96626247D01*
X148214286Y-96626247D02*
X148214286Y-96483390D01*
X148214286Y-96483390D02*
X148261905Y-96292914D01*
X148261905Y-96292914D02*
X148309524Y-96197676D01*
X148309524Y-96197676D02*
X148404762Y-96102438D01*
X148404762Y-96102438D02*
X148547619Y-96054819D01*
X148547619Y-96054819D02*
X148642857Y-96054819D01*
X148642857Y-96054819D02*
X148785714Y-96102438D01*
X148785714Y-96102438D02*
X148833333Y-96150057D01*
X149214286Y-96150057D02*
X149261905Y-96102438D01*
X149261905Y-96102438D02*
X149357143Y-96054819D01*
X149357143Y-96054819D02*
X149595238Y-96054819D01*
X149595238Y-96054819D02*
X149690476Y-96102438D01*
X149690476Y-96102438D02*
X149738095Y-96150057D01*
X149738095Y-96150057D02*
X149785714Y-96245295D01*
X149785714Y-96245295D02*
X149785714Y-96340533D01*
X149785714Y-96340533D02*
X149738095Y-96483390D01*
X149738095Y-96483390D02*
X149166667Y-97054819D01*
X149166667Y-97054819D02*
X149785714Y-97054819D01*
X141554819Y-116861904D02*
X142364342Y-116861904D01*
X142364342Y-116861904D02*
X142459580Y-116814285D01*
X142459580Y-116814285D02*
X142507200Y-116766666D01*
X142507200Y-116766666D02*
X142554819Y-116671428D01*
X142554819Y-116671428D02*
X142554819Y-116480952D01*
X142554819Y-116480952D02*
X142507200Y-116385714D01*
X142507200Y-116385714D02*
X142459580Y-116338095D01*
X142459580Y-116338095D02*
X142364342Y-116290476D01*
X142364342Y-116290476D02*
X141554819Y-116290476D01*
X142554819Y-115290476D02*
X142554819Y-115861904D01*
X142554819Y-115576190D02*
X141554819Y-115576190D01*
X141554819Y-115576190D02*
X141697676Y-115671428D01*
X141697676Y-115671428D02*
X141792914Y-115766666D01*
X141792914Y-115766666D02*
X141840533Y-115861904D01*
X168077142Y-62754819D02*
X167743809Y-62278628D01*
X167505714Y-62754819D02*
X167505714Y-61754819D01*
X167505714Y-61754819D02*
X167886666Y-61754819D01*
X167886666Y-61754819D02*
X167981904Y-61802438D01*
X167981904Y-61802438D02*
X168029523Y-61850057D01*
X168029523Y-61850057D02*
X168077142Y-61945295D01*
X168077142Y-61945295D02*
X168077142Y-62088152D01*
X168077142Y-62088152D02*
X168029523Y-62183390D01*
X168029523Y-62183390D02*
X167981904Y-62231009D01*
X167981904Y-62231009D02*
X167886666Y-62278628D01*
X167886666Y-62278628D02*
X167505714Y-62278628D01*
X169029523Y-62754819D02*
X168458095Y-62754819D01*
X168743809Y-62754819D02*
X168743809Y-61754819D01*
X168743809Y-61754819D02*
X168648571Y-61897676D01*
X168648571Y-61897676D02*
X168553333Y-61992914D01*
X168553333Y-61992914D02*
X168458095Y-62040533D01*
X169934285Y-61754819D02*
X169458095Y-61754819D01*
X169458095Y-61754819D02*
X169410476Y-62231009D01*
X169410476Y-62231009D02*
X169458095Y-62183390D01*
X169458095Y-62183390D02*
X169553333Y-62135771D01*
X169553333Y-62135771D02*
X169791428Y-62135771D01*
X169791428Y-62135771D02*
X169886666Y-62183390D01*
X169886666Y-62183390D02*
X169934285Y-62231009D01*
X169934285Y-62231009D02*
X169981904Y-62326247D01*
X169981904Y-62326247D02*
X169981904Y-62564342D01*
X169981904Y-62564342D02*
X169934285Y-62659580D01*
X169934285Y-62659580D02*
X169886666Y-62707200D01*
X169886666Y-62707200D02*
X169791428Y-62754819D01*
X169791428Y-62754819D02*
X169553333Y-62754819D01*
X169553333Y-62754819D02*
X169458095Y-62707200D01*
X169458095Y-62707200D02*
X169410476Y-62659580D01*
X161704761Y-52454819D02*
X161371428Y-51978628D01*
X161133333Y-52454819D02*
X161133333Y-51454819D01*
X161133333Y-51454819D02*
X161514285Y-51454819D01*
X161514285Y-51454819D02*
X161609523Y-51502438D01*
X161609523Y-51502438D02*
X161657142Y-51550057D01*
X161657142Y-51550057D02*
X161704761Y-51645295D01*
X161704761Y-51645295D02*
X161704761Y-51788152D01*
X161704761Y-51788152D02*
X161657142Y-51883390D01*
X161657142Y-51883390D02*
X161609523Y-51931009D01*
X161609523Y-51931009D02*
X161514285Y-51978628D01*
X161514285Y-51978628D02*
X161133333Y-51978628D01*
X161990476Y-51454819D02*
X162323809Y-52454819D01*
X162323809Y-52454819D02*
X162657142Y-51454819D01*
X162895238Y-51454819D02*
X163514285Y-51454819D01*
X163514285Y-51454819D02*
X163180952Y-51835771D01*
X163180952Y-51835771D02*
X163323809Y-51835771D01*
X163323809Y-51835771D02*
X163419047Y-51883390D01*
X163419047Y-51883390D02*
X163466666Y-51931009D01*
X163466666Y-51931009D02*
X163514285Y-52026247D01*
X163514285Y-52026247D02*
X163514285Y-52264342D01*
X163514285Y-52264342D02*
X163466666Y-52359580D01*
X163466666Y-52359580D02*
X163419047Y-52407200D01*
X163419047Y-52407200D02*
X163323809Y-52454819D01*
X163323809Y-52454819D02*
X163038095Y-52454819D01*
X163038095Y-52454819D02*
X162942857Y-52407200D01*
X162942857Y-52407200D02*
X162895238Y-52359580D01*
X159959580Y-112942857D02*
X160007200Y-112990476D01*
X160007200Y-112990476D02*
X160054819Y-113133333D01*
X160054819Y-113133333D02*
X160054819Y-113228571D01*
X160054819Y-113228571D02*
X160007200Y-113371428D01*
X160007200Y-113371428D02*
X159911961Y-113466666D01*
X159911961Y-113466666D02*
X159816723Y-113514285D01*
X159816723Y-113514285D02*
X159626247Y-113561904D01*
X159626247Y-113561904D02*
X159483390Y-113561904D01*
X159483390Y-113561904D02*
X159292914Y-113514285D01*
X159292914Y-113514285D02*
X159197676Y-113466666D01*
X159197676Y-113466666D02*
X159102438Y-113371428D01*
X159102438Y-113371428D02*
X159054819Y-113228571D01*
X159054819Y-113228571D02*
X159054819Y-113133333D01*
X159054819Y-113133333D02*
X159102438Y-112990476D01*
X159102438Y-112990476D02*
X159150057Y-112942857D01*
X160054819Y-111990476D02*
X160054819Y-112561904D01*
X160054819Y-112276190D02*
X159054819Y-112276190D01*
X159054819Y-112276190D02*
X159197676Y-112371428D01*
X159197676Y-112371428D02*
X159292914Y-112466666D01*
X159292914Y-112466666D02*
X159340533Y-112561904D01*
X159054819Y-111657142D02*
X159054819Y-111038095D01*
X159054819Y-111038095D02*
X159435771Y-111371428D01*
X159435771Y-111371428D02*
X159435771Y-111228571D01*
X159435771Y-111228571D02*
X159483390Y-111133333D01*
X159483390Y-111133333D02*
X159531009Y-111085714D01*
X159531009Y-111085714D02*
X159626247Y-111038095D01*
X159626247Y-111038095D02*
X159864342Y-111038095D01*
X159864342Y-111038095D02*
X159959580Y-111085714D01*
X159959580Y-111085714D02*
X160007200Y-111133333D01*
X160007200Y-111133333D02*
X160054819Y-111228571D01*
X160054819Y-111228571D02*
X160054819Y-111514285D01*
X160054819Y-111514285D02*
X160007200Y-111609523D01*
X160007200Y-111609523D02*
X159959580Y-111657142D01*
X148457142Y-113754819D02*
X148123809Y-113278628D01*
X147885714Y-113754819D02*
X147885714Y-112754819D01*
X147885714Y-112754819D02*
X148266666Y-112754819D01*
X148266666Y-112754819D02*
X148361904Y-112802438D01*
X148361904Y-112802438D02*
X148409523Y-112850057D01*
X148409523Y-112850057D02*
X148457142Y-112945295D01*
X148457142Y-112945295D02*
X148457142Y-113088152D01*
X148457142Y-113088152D02*
X148409523Y-113183390D01*
X148409523Y-113183390D02*
X148361904Y-113231009D01*
X148361904Y-113231009D02*
X148266666Y-113278628D01*
X148266666Y-113278628D02*
X147885714Y-113278628D01*
X149409523Y-113754819D02*
X148838095Y-113754819D01*
X149123809Y-113754819D02*
X149123809Y-112754819D01*
X149123809Y-112754819D02*
X149028571Y-112897676D01*
X149028571Y-112897676D02*
X148933333Y-112992914D01*
X148933333Y-112992914D02*
X148838095Y-113040533D01*
X150028571Y-112754819D02*
X150123809Y-112754819D01*
X150123809Y-112754819D02*
X150219047Y-112802438D01*
X150219047Y-112802438D02*
X150266666Y-112850057D01*
X150266666Y-112850057D02*
X150314285Y-112945295D01*
X150314285Y-112945295D02*
X150361904Y-113135771D01*
X150361904Y-113135771D02*
X150361904Y-113373866D01*
X150361904Y-113373866D02*
X150314285Y-113564342D01*
X150314285Y-113564342D02*
X150266666Y-113659580D01*
X150266666Y-113659580D02*
X150219047Y-113707200D01*
X150219047Y-113707200D02*
X150123809Y-113754819D01*
X150123809Y-113754819D02*
X150028571Y-113754819D01*
X150028571Y-113754819D02*
X149933333Y-113707200D01*
X149933333Y-113707200D02*
X149885714Y-113659580D01*
X149885714Y-113659580D02*
X149838095Y-113564342D01*
X149838095Y-113564342D02*
X149790476Y-113373866D01*
X149790476Y-113373866D02*
X149790476Y-113135771D01*
X149790476Y-113135771D02*
X149838095Y-112945295D01*
X149838095Y-112945295D02*
X149885714Y-112850057D01*
X149885714Y-112850057D02*
X149933333Y-112802438D01*
X149933333Y-112802438D02*
X150028571Y-112754819D01*
X136553333Y-101654819D02*
X136220000Y-101178628D01*
X135981905Y-101654819D02*
X135981905Y-100654819D01*
X135981905Y-100654819D02*
X136362857Y-100654819D01*
X136362857Y-100654819D02*
X136458095Y-100702438D01*
X136458095Y-100702438D02*
X136505714Y-100750057D01*
X136505714Y-100750057D02*
X136553333Y-100845295D01*
X136553333Y-100845295D02*
X136553333Y-100988152D01*
X136553333Y-100988152D02*
X136505714Y-101083390D01*
X136505714Y-101083390D02*
X136458095Y-101131009D01*
X136458095Y-101131009D02*
X136362857Y-101178628D01*
X136362857Y-101178628D02*
X135981905Y-101178628D01*
X137410476Y-100988152D02*
X137410476Y-101654819D01*
X137172381Y-100607200D02*
X136934286Y-101321485D01*
X136934286Y-101321485D02*
X137553333Y-101321485D01*
X139457142Y-60959580D02*
X139409523Y-61007200D01*
X139409523Y-61007200D02*
X139266666Y-61054819D01*
X139266666Y-61054819D02*
X139171428Y-61054819D01*
X139171428Y-61054819D02*
X139028571Y-61007200D01*
X139028571Y-61007200D02*
X138933333Y-60911961D01*
X138933333Y-60911961D02*
X138885714Y-60816723D01*
X138885714Y-60816723D02*
X138838095Y-60626247D01*
X138838095Y-60626247D02*
X138838095Y-60483390D01*
X138838095Y-60483390D02*
X138885714Y-60292914D01*
X138885714Y-60292914D02*
X138933333Y-60197676D01*
X138933333Y-60197676D02*
X139028571Y-60102438D01*
X139028571Y-60102438D02*
X139171428Y-60054819D01*
X139171428Y-60054819D02*
X139266666Y-60054819D01*
X139266666Y-60054819D02*
X139409523Y-60102438D01*
X139409523Y-60102438D02*
X139457142Y-60150057D01*
X140409523Y-61054819D02*
X139838095Y-61054819D01*
X140123809Y-61054819D02*
X140123809Y-60054819D01*
X140123809Y-60054819D02*
X140028571Y-60197676D01*
X140028571Y-60197676D02*
X139933333Y-60292914D01*
X139933333Y-60292914D02*
X139838095Y-60340533D01*
X141314285Y-60054819D02*
X140838095Y-60054819D01*
X140838095Y-60054819D02*
X140790476Y-60531009D01*
X140790476Y-60531009D02*
X140838095Y-60483390D01*
X140838095Y-60483390D02*
X140933333Y-60435771D01*
X140933333Y-60435771D02*
X141171428Y-60435771D01*
X141171428Y-60435771D02*
X141266666Y-60483390D01*
X141266666Y-60483390D02*
X141314285Y-60531009D01*
X141314285Y-60531009D02*
X141361904Y-60626247D01*
X141361904Y-60626247D02*
X141361904Y-60864342D01*
X141361904Y-60864342D02*
X141314285Y-60959580D01*
X141314285Y-60959580D02*
X141266666Y-61007200D01*
X141266666Y-61007200D02*
X141171428Y-61054819D01*
X141171428Y-61054819D02*
X140933333Y-61054819D01*
X140933333Y-61054819D02*
X140838095Y-61007200D01*
X140838095Y-61007200D02*
X140790476Y-60959580D01*
X168854819Y-106062857D02*
X168378628Y-106396190D01*
X168854819Y-106634285D02*
X167854819Y-106634285D01*
X167854819Y-106634285D02*
X167854819Y-106253333D01*
X167854819Y-106253333D02*
X167902438Y-106158095D01*
X167902438Y-106158095D02*
X167950057Y-106110476D01*
X167950057Y-106110476D02*
X168045295Y-106062857D01*
X168045295Y-106062857D02*
X168188152Y-106062857D01*
X168188152Y-106062857D02*
X168283390Y-106110476D01*
X168283390Y-106110476D02*
X168331009Y-106158095D01*
X168331009Y-106158095D02*
X168378628Y-106253333D01*
X168378628Y-106253333D02*
X168378628Y-106634285D01*
X167950057Y-105681904D02*
X167902438Y-105634285D01*
X167902438Y-105634285D02*
X167854819Y-105539047D01*
X167854819Y-105539047D02*
X167854819Y-105300952D01*
X167854819Y-105300952D02*
X167902438Y-105205714D01*
X167902438Y-105205714D02*
X167950057Y-105158095D01*
X167950057Y-105158095D02*
X168045295Y-105110476D01*
X168045295Y-105110476D02*
X168140533Y-105110476D01*
X168140533Y-105110476D02*
X168283390Y-105158095D01*
X168283390Y-105158095D02*
X168854819Y-105729523D01*
X168854819Y-105729523D02*
X168854819Y-105110476D01*
X168854819Y-104158095D02*
X168854819Y-104729523D01*
X168854819Y-104443809D02*
X167854819Y-104443809D01*
X167854819Y-104443809D02*
X167997676Y-104539047D01*
X167997676Y-104539047D02*
X168092914Y-104634285D01*
X168092914Y-104634285D02*
X168140533Y-104729523D01*
X162654819Y-106042857D02*
X162178628Y-106376190D01*
X162654819Y-106614285D02*
X161654819Y-106614285D01*
X161654819Y-106614285D02*
X161654819Y-106233333D01*
X161654819Y-106233333D02*
X161702438Y-106138095D01*
X161702438Y-106138095D02*
X161750057Y-106090476D01*
X161750057Y-106090476D02*
X161845295Y-106042857D01*
X161845295Y-106042857D02*
X161988152Y-106042857D01*
X161988152Y-106042857D02*
X162083390Y-106090476D01*
X162083390Y-106090476D02*
X162131009Y-106138095D01*
X162131009Y-106138095D02*
X162178628Y-106233333D01*
X162178628Y-106233333D02*
X162178628Y-106614285D01*
X162654819Y-105090476D02*
X162654819Y-105661904D01*
X162654819Y-105376190D02*
X161654819Y-105376190D01*
X161654819Y-105376190D02*
X161797676Y-105471428D01*
X161797676Y-105471428D02*
X161892914Y-105566666D01*
X161892914Y-105566666D02*
X161940533Y-105661904D01*
X162654819Y-104614285D02*
X162654819Y-104423809D01*
X162654819Y-104423809D02*
X162607200Y-104328571D01*
X162607200Y-104328571D02*
X162559580Y-104280952D01*
X162559580Y-104280952D02*
X162416723Y-104185714D01*
X162416723Y-104185714D02*
X162226247Y-104138095D01*
X162226247Y-104138095D02*
X161845295Y-104138095D01*
X161845295Y-104138095D02*
X161750057Y-104185714D01*
X161750057Y-104185714D02*
X161702438Y-104233333D01*
X161702438Y-104233333D02*
X161654819Y-104328571D01*
X161654819Y-104328571D02*
X161654819Y-104519047D01*
X161654819Y-104519047D02*
X161702438Y-104614285D01*
X161702438Y-104614285D02*
X161750057Y-104661904D01*
X161750057Y-104661904D02*
X161845295Y-104709523D01*
X161845295Y-104709523D02*
X162083390Y-104709523D01*
X162083390Y-104709523D02*
X162178628Y-104661904D01*
X162178628Y-104661904D02*
X162226247Y-104614285D01*
X162226247Y-104614285D02*
X162273866Y-104519047D01*
X162273866Y-104519047D02*
X162273866Y-104328571D01*
X162273866Y-104328571D02*
X162226247Y-104233333D01*
X162226247Y-104233333D02*
X162178628Y-104185714D01*
X162178628Y-104185714D02*
X162083390Y-104138095D01*
X166147142Y-92104819D02*
X165813809Y-91628628D01*
X165575714Y-92104819D02*
X165575714Y-91104819D01*
X165575714Y-91104819D02*
X165956666Y-91104819D01*
X165956666Y-91104819D02*
X166051904Y-91152438D01*
X166051904Y-91152438D02*
X166099523Y-91200057D01*
X166099523Y-91200057D02*
X166147142Y-91295295D01*
X166147142Y-91295295D02*
X166147142Y-91438152D01*
X166147142Y-91438152D02*
X166099523Y-91533390D01*
X166099523Y-91533390D02*
X166051904Y-91581009D01*
X166051904Y-91581009D02*
X165956666Y-91628628D01*
X165956666Y-91628628D02*
X165575714Y-91628628D01*
X166528095Y-91200057D02*
X166575714Y-91152438D01*
X166575714Y-91152438D02*
X166670952Y-91104819D01*
X166670952Y-91104819D02*
X166909047Y-91104819D01*
X166909047Y-91104819D02*
X167004285Y-91152438D01*
X167004285Y-91152438D02*
X167051904Y-91200057D01*
X167051904Y-91200057D02*
X167099523Y-91295295D01*
X167099523Y-91295295D02*
X167099523Y-91390533D01*
X167099523Y-91390533D02*
X167051904Y-91533390D01*
X167051904Y-91533390D02*
X166480476Y-92104819D01*
X166480476Y-92104819D02*
X167099523Y-92104819D01*
X168004285Y-91104819D02*
X167528095Y-91104819D01*
X167528095Y-91104819D02*
X167480476Y-91581009D01*
X167480476Y-91581009D02*
X167528095Y-91533390D01*
X167528095Y-91533390D02*
X167623333Y-91485771D01*
X167623333Y-91485771D02*
X167861428Y-91485771D01*
X167861428Y-91485771D02*
X167956666Y-91533390D01*
X167956666Y-91533390D02*
X168004285Y-91581009D01*
X168004285Y-91581009D02*
X168051904Y-91676247D01*
X168051904Y-91676247D02*
X168051904Y-91914342D01*
X168051904Y-91914342D02*
X168004285Y-92009580D01*
X168004285Y-92009580D02*
X167956666Y-92057200D01*
X167956666Y-92057200D02*
X167861428Y-92104819D01*
X167861428Y-92104819D02*
X167623333Y-92104819D01*
X167623333Y-92104819D02*
X167528095Y-92057200D01*
X167528095Y-92057200D02*
X167480476Y-92009580D01*
X142204761Y-52654819D02*
X141871428Y-52178628D01*
X141633333Y-52654819D02*
X141633333Y-51654819D01*
X141633333Y-51654819D02*
X142014285Y-51654819D01*
X142014285Y-51654819D02*
X142109523Y-51702438D01*
X142109523Y-51702438D02*
X142157142Y-51750057D01*
X142157142Y-51750057D02*
X142204761Y-51845295D01*
X142204761Y-51845295D02*
X142204761Y-51988152D01*
X142204761Y-51988152D02*
X142157142Y-52083390D01*
X142157142Y-52083390D02*
X142109523Y-52131009D01*
X142109523Y-52131009D02*
X142014285Y-52178628D01*
X142014285Y-52178628D02*
X141633333Y-52178628D01*
X142490476Y-51654819D02*
X142823809Y-52654819D01*
X142823809Y-52654819D02*
X143157142Y-51654819D01*
X144014285Y-52654819D02*
X143442857Y-52654819D01*
X143728571Y-52654819D02*
X143728571Y-51654819D01*
X143728571Y-51654819D02*
X143633333Y-51797676D01*
X143633333Y-51797676D02*
X143538095Y-51892914D01*
X143538095Y-51892914D02*
X143442857Y-51940533D01*
X166257142Y-95154819D02*
X165923809Y-94678628D01*
X165685714Y-95154819D02*
X165685714Y-94154819D01*
X165685714Y-94154819D02*
X166066666Y-94154819D01*
X166066666Y-94154819D02*
X166161904Y-94202438D01*
X166161904Y-94202438D02*
X166209523Y-94250057D01*
X166209523Y-94250057D02*
X166257142Y-94345295D01*
X166257142Y-94345295D02*
X166257142Y-94488152D01*
X166257142Y-94488152D02*
X166209523Y-94583390D01*
X166209523Y-94583390D02*
X166161904Y-94631009D01*
X166161904Y-94631009D02*
X166066666Y-94678628D01*
X166066666Y-94678628D02*
X165685714Y-94678628D01*
X166638095Y-94250057D02*
X166685714Y-94202438D01*
X166685714Y-94202438D02*
X166780952Y-94154819D01*
X166780952Y-94154819D02*
X167019047Y-94154819D01*
X167019047Y-94154819D02*
X167114285Y-94202438D01*
X167114285Y-94202438D02*
X167161904Y-94250057D01*
X167161904Y-94250057D02*
X167209523Y-94345295D01*
X167209523Y-94345295D02*
X167209523Y-94440533D01*
X167209523Y-94440533D02*
X167161904Y-94583390D01*
X167161904Y-94583390D02*
X166590476Y-95154819D01*
X166590476Y-95154819D02*
X167209523Y-95154819D01*
X167542857Y-94154819D02*
X168161904Y-94154819D01*
X168161904Y-94154819D02*
X167828571Y-94535771D01*
X167828571Y-94535771D02*
X167971428Y-94535771D01*
X167971428Y-94535771D02*
X168066666Y-94583390D01*
X168066666Y-94583390D02*
X168114285Y-94631009D01*
X168114285Y-94631009D02*
X168161904Y-94726247D01*
X168161904Y-94726247D02*
X168161904Y-94964342D01*
X168161904Y-94964342D02*
X168114285Y-95059580D01*
X168114285Y-95059580D02*
X168066666Y-95107200D01*
X168066666Y-95107200D02*
X167971428Y-95154819D01*
X167971428Y-95154819D02*
X167685714Y-95154819D01*
X167685714Y-95154819D02*
X167590476Y-95107200D01*
X167590476Y-95107200D02*
X167542857Y-95059580D01*
X148550057Y-108095238D02*
X148502438Y-108190476D01*
X148502438Y-108190476D02*
X148407200Y-108285714D01*
X148407200Y-108285714D02*
X148264342Y-108428571D01*
X148264342Y-108428571D02*
X148216723Y-108523809D01*
X148216723Y-108523809D02*
X148216723Y-108619047D01*
X148454819Y-108571428D02*
X148407200Y-108666666D01*
X148407200Y-108666666D02*
X148311961Y-108761904D01*
X148311961Y-108761904D02*
X148121485Y-108809523D01*
X148121485Y-108809523D02*
X147788152Y-108809523D01*
X147788152Y-108809523D02*
X147597676Y-108761904D01*
X147597676Y-108761904D02*
X147502438Y-108666666D01*
X147502438Y-108666666D02*
X147454819Y-108571428D01*
X147454819Y-108571428D02*
X147454819Y-108380952D01*
X147454819Y-108380952D02*
X147502438Y-108285714D01*
X147502438Y-108285714D02*
X147597676Y-108190476D01*
X147597676Y-108190476D02*
X147788152Y-108142857D01*
X147788152Y-108142857D02*
X148121485Y-108142857D01*
X148121485Y-108142857D02*
X148311961Y-108190476D01*
X148311961Y-108190476D02*
X148407200Y-108285714D01*
X148407200Y-108285714D02*
X148454819Y-108380952D01*
X148454819Y-108380952D02*
X148454819Y-108571428D01*
X147550057Y-107761904D02*
X147502438Y-107714285D01*
X147502438Y-107714285D02*
X147454819Y-107619047D01*
X147454819Y-107619047D02*
X147454819Y-107380952D01*
X147454819Y-107380952D02*
X147502438Y-107285714D01*
X147502438Y-107285714D02*
X147550057Y-107238095D01*
X147550057Y-107238095D02*
X147645295Y-107190476D01*
X147645295Y-107190476D02*
X147740533Y-107190476D01*
X147740533Y-107190476D02*
X147883390Y-107238095D01*
X147883390Y-107238095D02*
X148454819Y-107809523D01*
X148454819Y-107809523D02*
X148454819Y-107190476D01*
X136553333Y-95654819D02*
X136220000Y-95178628D01*
X135981905Y-95654819D02*
X135981905Y-94654819D01*
X135981905Y-94654819D02*
X136362857Y-94654819D01*
X136362857Y-94654819D02*
X136458095Y-94702438D01*
X136458095Y-94702438D02*
X136505714Y-94750057D01*
X136505714Y-94750057D02*
X136553333Y-94845295D01*
X136553333Y-94845295D02*
X136553333Y-94988152D01*
X136553333Y-94988152D02*
X136505714Y-95083390D01*
X136505714Y-95083390D02*
X136458095Y-95131009D01*
X136458095Y-95131009D02*
X136362857Y-95178628D01*
X136362857Y-95178628D02*
X135981905Y-95178628D01*
X136934286Y-94750057D02*
X136981905Y-94702438D01*
X136981905Y-94702438D02*
X137077143Y-94654819D01*
X137077143Y-94654819D02*
X137315238Y-94654819D01*
X137315238Y-94654819D02*
X137410476Y-94702438D01*
X137410476Y-94702438D02*
X137458095Y-94750057D01*
X137458095Y-94750057D02*
X137505714Y-94845295D01*
X137505714Y-94845295D02*
X137505714Y-94940533D01*
X137505714Y-94940533D02*
X137458095Y-95083390D01*
X137458095Y-95083390D02*
X136886667Y-95654819D01*
X136886667Y-95654819D02*
X137505714Y-95654819D01*
X136553333Y-98654819D02*
X136220000Y-98178628D01*
X135981905Y-98654819D02*
X135981905Y-97654819D01*
X135981905Y-97654819D02*
X136362857Y-97654819D01*
X136362857Y-97654819D02*
X136458095Y-97702438D01*
X136458095Y-97702438D02*
X136505714Y-97750057D01*
X136505714Y-97750057D02*
X136553333Y-97845295D01*
X136553333Y-97845295D02*
X136553333Y-97988152D01*
X136553333Y-97988152D02*
X136505714Y-98083390D01*
X136505714Y-98083390D02*
X136458095Y-98131009D01*
X136458095Y-98131009D02*
X136362857Y-98178628D01*
X136362857Y-98178628D02*
X135981905Y-98178628D01*
X136886667Y-97654819D02*
X137505714Y-97654819D01*
X137505714Y-97654819D02*
X137172381Y-98035771D01*
X137172381Y-98035771D02*
X137315238Y-98035771D01*
X137315238Y-98035771D02*
X137410476Y-98083390D01*
X137410476Y-98083390D02*
X137458095Y-98131009D01*
X137458095Y-98131009D02*
X137505714Y-98226247D01*
X137505714Y-98226247D02*
X137505714Y-98464342D01*
X137505714Y-98464342D02*
X137458095Y-98559580D01*
X137458095Y-98559580D02*
X137410476Y-98607200D01*
X137410476Y-98607200D02*
X137315238Y-98654819D01*
X137315238Y-98654819D02*
X137029524Y-98654819D01*
X137029524Y-98654819D02*
X136934286Y-98607200D01*
X136934286Y-98607200D02*
X136886667Y-98559580D01*
X168157142Y-59654819D02*
X167823809Y-59178628D01*
X167585714Y-59654819D02*
X167585714Y-58654819D01*
X167585714Y-58654819D02*
X167966666Y-58654819D01*
X167966666Y-58654819D02*
X168061904Y-58702438D01*
X168061904Y-58702438D02*
X168109523Y-58750057D01*
X168109523Y-58750057D02*
X168157142Y-58845295D01*
X168157142Y-58845295D02*
X168157142Y-58988152D01*
X168157142Y-58988152D02*
X168109523Y-59083390D01*
X168109523Y-59083390D02*
X168061904Y-59131009D01*
X168061904Y-59131009D02*
X167966666Y-59178628D01*
X167966666Y-59178628D02*
X167585714Y-59178628D01*
X169109523Y-59654819D02*
X168538095Y-59654819D01*
X168823809Y-59654819D02*
X168823809Y-58654819D01*
X168823809Y-58654819D02*
X168728571Y-58797676D01*
X168728571Y-58797676D02*
X168633333Y-58892914D01*
X168633333Y-58892914D02*
X168538095Y-58940533D01*
X169442857Y-58654819D02*
X170109523Y-58654819D01*
X170109523Y-58654819D02*
X169680952Y-59654819D01*
X139457142Y-59059580D02*
X139409523Y-59107200D01*
X139409523Y-59107200D02*
X139266666Y-59154819D01*
X139266666Y-59154819D02*
X139171428Y-59154819D01*
X139171428Y-59154819D02*
X139028571Y-59107200D01*
X139028571Y-59107200D02*
X138933333Y-59011961D01*
X138933333Y-59011961D02*
X138885714Y-58916723D01*
X138885714Y-58916723D02*
X138838095Y-58726247D01*
X138838095Y-58726247D02*
X138838095Y-58583390D01*
X138838095Y-58583390D02*
X138885714Y-58392914D01*
X138885714Y-58392914D02*
X138933333Y-58297676D01*
X138933333Y-58297676D02*
X139028571Y-58202438D01*
X139028571Y-58202438D02*
X139171428Y-58154819D01*
X139171428Y-58154819D02*
X139266666Y-58154819D01*
X139266666Y-58154819D02*
X139409523Y-58202438D01*
X139409523Y-58202438D02*
X139457142Y-58250057D01*
X140409523Y-59154819D02*
X139838095Y-59154819D01*
X140123809Y-59154819D02*
X140123809Y-58154819D01*
X140123809Y-58154819D02*
X140028571Y-58297676D01*
X140028571Y-58297676D02*
X139933333Y-58392914D01*
X139933333Y-58392914D02*
X139838095Y-58440533D01*
X141266666Y-58488152D02*
X141266666Y-59154819D01*
X141028571Y-58107200D02*
X140790476Y-58821485D01*
X140790476Y-58821485D02*
X141409523Y-58821485D01*
X156066666Y-52954819D02*
X156066666Y-53669104D01*
X156066666Y-53669104D02*
X156019047Y-53811961D01*
X156019047Y-53811961D02*
X155923809Y-53907200D01*
X155923809Y-53907200D02*
X155780952Y-53954819D01*
X155780952Y-53954819D02*
X155685714Y-53954819D01*
X156447619Y-52954819D02*
X157066666Y-52954819D01*
X157066666Y-52954819D02*
X156733333Y-53335771D01*
X156733333Y-53335771D02*
X156876190Y-53335771D01*
X156876190Y-53335771D02*
X156971428Y-53383390D01*
X156971428Y-53383390D02*
X157019047Y-53431009D01*
X157019047Y-53431009D02*
X157066666Y-53526247D01*
X157066666Y-53526247D02*
X157066666Y-53764342D01*
X157066666Y-53764342D02*
X157019047Y-53859580D01*
X157019047Y-53859580D02*
X156971428Y-53907200D01*
X156971428Y-53907200D02*
X156876190Y-53954819D01*
X156876190Y-53954819D02*
X156590476Y-53954819D01*
X156590476Y-53954819D02*
X156495238Y-53907200D01*
X156495238Y-53907200D02*
X156447619Y-53859580D01*
X133133333Y-67859580D02*
X133085714Y-67907200D01*
X133085714Y-67907200D02*
X132942857Y-67954819D01*
X132942857Y-67954819D02*
X132847619Y-67954819D01*
X132847619Y-67954819D02*
X132704762Y-67907200D01*
X132704762Y-67907200D02*
X132609524Y-67811961D01*
X132609524Y-67811961D02*
X132561905Y-67716723D01*
X132561905Y-67716723D02*
X132514286Y-67526247D01*
X132514286Y-67526247D02*
X132514286Y-67383390D01*
X132514286Y-67383390D02*
X132561905Y-67192914D01*
X132561905Y-67192914D02*
X132609524Y-67097676D01*
X132609524Y-67097676D02*
X132704762Y-67002438D01*
X132704762Y-67002438D02*
X132847619Y-66954819D01*
X132847619Y-66954819D02*
X132942857Y-66954819D01*
X132942857Y-66954819D02*
X133085714Y-67002438D01*
X133085714Y-67002438D02*
X133133333Y-67050057D01*
X133466667Y-66954819D02*
X134133333Y-66954819D01*
X134133333Y-66954819D02*
X133704762Y-67954819D01*
D15*
X150768095Y-136733609D02*
X150434762Y-136733609D01*
X150434762Y-137257419D02*
X150434762Y-136257419D01*
X150434762Y-136257419D02*
X150910952Y-136257419D01*
X151149048Y-136257419D02*
X151720476Y-136257419D01*
X151434762Y-137257419D02*
X151434762Y-136257419D01*
X152006191Y-137209800D02*
X152149048Y-137257419D01*
X152149048Y-137257419D02*
X152387143Y-137257419D01*
X152387143Y-137257419D02*
X152482381Y-137209800D01*
X152482381Y-137209800D02*
X152530000Y-137162180D01*
X152530000Y-137162180D02*
X152577619Y-137066942D01*
X152577619Y-137066942D02*
X152577619Y-136971704D01*
X152577619Y-136971704D02*
X152530000Y-136876466D01*
X152530000Y-136876466D02*
X152482381Y-136828847D01*
X152482381Y-136828847D02*
X152387143Y-136781228D01*
X152387143Y-136781228D02*
X152196667Y-136733609D01*
X152196667Y-136733609D02*
X152101429Y-136685990D01*
X152101429Y-136685990D02*
X152053810Y-136638371D01*
X152053810Y-136638371D02*
X152006191Y-136543133D01*
X152006191Y-136543133D02*
X152006191Y-136447895D01*
X152006191Y-136447895D02*
X152053810Y-136352657D01*
X152053810Y-136352657D02*
X152101429Y-136305038D01*
X152101429Y-136305038D02*
X152196667Y-136257419D01*
X152196667Y-136257419D02*
X152434762Y-136257419D01*
X152434762Y-136257419D02*
X152577619Y-136305038D01*
X152910953Y-136257419D02*
X153149048Y-137257419D01*
X153149048Y-137257419D02*
X153339524Y-136543133D01*
X153339524Y-136543133D02*
X153530000Y-137257419D01*
X153530000Y-137257419D02*
X153768096Y-136257419D01*
X154672857Y-137257419D02*
X154101429Y-137257419D01*
X154387143Y-137257419D02*
X154387143Y-136257419D01*
X154387143Y-136257419D02*
X154291905Y-136400276D01*
X154291905Y-136400276D02*
X154196667Y-136495514D01*
X154196667Y-136495514D02*
X154101429Y-136543133D01*
D14*
X136057142Y-126954819D02*
X135723809Y-126478628D01*
X135485714Y-126954819D02*
X135485714Y-125954819D01*
X135485714Y-125954819D02*
X135866666Y-125954819D01*
X135866666Y-125954819D02*
X135961904Y-126002438D01*
X135961904Y-126002438D02*
X136009523Y-126050057D01*
X136009523Y-126050057D02*
X136057142Y-126145295D01*
X136057142Y-126145295D02*
X136057142Y-126288152D01*
X136057142Y-126288152D02*
X136009523Y-126383390D01*
X136009523Y-126383390D02*
X135961904Y-126431009D01*
X135961904Y-126431009D02*
X135866666Y-126478628D01*
X135866666Y-126478628D02*
X135485714Y-126478628D01*
X137009523Y-126954819D02*
X136438095Y-126954819D01*
X136723809Y-126954819D02*
X136723809Y-125954819D01*
X136723809Y-125954819D02*
X136628571Y-126097676D01*
X136628571Y-126097676D02*
X136533333Y-126192914D01*
X136533333Y-126192914D02*
X136438095Y-126240533D01*
X137961904Y-126954819D02*
X137390476Y-126954819D01*
X137676190Y-126954819D02*
X137676190Y-125954819D01*
X137676190Y-125954819D02*
X137580952Y-126097676D01*
X137580952Y-126097676D02*
X137485714Y-126192914D01*
X137485714Y-126192914D02*
X137390476Y-126240533D01*
X148933333Y-110754819D02*
X148600000Y-110278628D01*
X148361905Y-110754819D02*
X148361905Y-109754819D01*
X148361905Y-109754819D02*
X148742857Y-109754819D01*
X148742857Y-109754819D02*
X148838095Y-109802438D01*
X148838095Y-109802438D02*
X148885714Y-109850057D01*
X148885714Y-109850057D02*
X148933333Y-109945295D01*
X148933333Y-109945295D02*
X148933333Y-110088152D01*
X148933333Y-110088152D02*
X148885714Y-110183390D01*
X148885714Y-110183390D02*
X148838095Y-110231009D01*
X148838095Y-110231009D02*
X148742857Y-110278628D01*
X148742857Y-110278628D02*
X148361905Y-110278628D01*
X149409524Y-110754819D02*
X149600000Y-110754819D01*
X149600000Y-110754819D02*
X149695238Y-110707200D01*
X149695238Y-110707200D02*
X149742857Y-110659580D01*
X149742857Y-110659580D02*
X149838095Y-110516723D01*
X149838095Y-110516723D02*
X149885714Y-110326247D01*
X149885714Y-110326247D02*
X149885714Y-109945295D01*
X149885714Y-109945295D02*
X149838095Y-109850057D01*
X149838095Y-109850057D02*
X149790476Y-109802438D01*
X149790476Y-109802438D02*
X149695238Y-109754819D01*
X149695238Y-109754819D02*
X149504762Y-109754819D01*
X149504762Y-109754819D02*
X149409524Y-109802438D01*
X149409524Y-109802438D02*
X149361905Y-109850057D01*
X149361905Y-109850057D02*
X149314286Y-109945295D01*
X149314286Y-109945295D02*
X149314286Y-110183390D01*
X149314286Y-110183390D02*
X149361905Y-110278628D01*
X149361905Y-110278628D02*
X149409524Y-110326247D01*
X149409524Y-110326247D02*
X149504762Y-110373866D01*
X149504762Y-110373866D02*
X149695238Y-110373866D01*
X149695238Y-110373866D02*
X149790476Y-110326247D01*
X149790476Y-110326247D02*
X149838095Y-110278628D01*
X149838095Y-110278628D02*
X149885714Y-110183390D01*
X136553333Y-92554819D02*
X136220000Y-92078628D01*
X135981905Y-92554819D02*
X135981905Y-91554819D01*
X135981905Y-91554819D02*
X136362857Y-91554819D01*
X136362857Y-91554819D02*
X136458095Y-91602438D01*
X136458095Y-91602438D02*
X136505714Y-91650057D01*
X136505714Y-91650057D02*
X136553333Y-91745295D01*
X136553333Y-91745295D02*
X136553333Y-91888152D01*
X136553333Y-91888152D02*
X136505714Y-91983390D01*
X136505714Y-91983390D02*
X136458095Y-92031009D01*
X136458095Y-92031009D02*
X136362857Y-92078628D01*
X136362857Y-92078628D02*
X135981905Y-92078628D01*
X137505714Y-92554819D02*
X136934286Y-92554819D01*
X137220000Y-92554819D02*
X137220000Y-91554819D01*
X137220000Y-91554819D02*
X137124762Y-91697676D01*
X137124762Y-91697676D02*
X137029524Y-91792914D01*
X137029524Y-91792914D02*
X136934286Y-91840533D01*
X152061905Y-83954819D02*
X152061905Y-82954819D01*
X152061905Y-82954819D02*
X152300000Y-82954819D01*
X152300000Y-82954819D02*
X152442857Y-83002438D01*
X152442857Y-83002438D02*
X152538095Y-83097676D01*
X152538095Y-83097676D02*
X152585714Y-83192914D01*
X152585714Y-83192914D02*
X152633333Y-83383390D01*
X152633333Y-83383390D02*
X152633333Y-83526247D01*
X152633333Y-83526247D02*
X152585714Y-83716723D01*
X152585714Y-83716723D02*
X152538095Y-83811961D01*
X152538095Y-83811961D02*
X152442857Y-83907200D01*
X152442857Y-83907200D02*
X152300000Y-83954819D01*
X152300000Y-83954819D02*
X152061905Y-83954819D01*
X153538095Y-82954819D02*
X153061905Y-82954819D01*
X153061905Y-82954819D02*
X153014286Y-83431009D01*
X153014286Y-83431009D02*
X153061905Y-83383390D01*
X153061905Y-83383390D02*
X153157143Y-83335771D01*
X153157143Y-83335771D02*
X153395238Y-83335771D01*
X153395238Y-83335771D02*
X153490476Y-83383390D01*
X153490476Y-83383390D02*
X153538095Y-83431009D01*
X153538095Y-83431009D02*
X153585714Y-83526247D01*
X153585714Y-83526247D02*
X153585714Y-83764342D01*
X153585714Y-83764342D02*
X153538095Y-83859580D01*
X153538095Y-83859580D02*
X153490476Y-83907200D01*
X153490476Y-83907200D02*
X153395238Y-83954819D01*
X153395238Y-83954819D02*
X153157143Y-83954819D01*
X153157143Y-83954819D02*
X153061905Y-83907200D01*
X153061905Y-83907200D02*
X153014286Y-83859580D01*
X131059580Y-123166666D02*
X131107200Y-123214285D01*
X131107200Y-123214285D02*
X131154819Y-123357142D01*
X131154819Y-123357142D02*
X131154819Y-123452380D01*
X131154819Y-123452380D02*
X131107200Y-123595237D01*
X131107200Y-123595237D02*
X131011961Y-123690475D01*
X131011961Y-123690475D02*
X130916723Y-123738094D01*
X130916723Y-123738094D02*
X130726247Y-123785713D01*
X130726247Y-123785713D02*
X130583390Y-123785713D01*
X130583390Y-123785713D02*
X130392914Y-123738094D01*
X130392914Y-123738094D02*
X130297676Y-123690475D01*
X130297676Y-123690475D02*
X130202438Y-123595237D01*
X130202438Y-123595237D02*
X130154819Y-123452380D01*
X130154819Y-123452380D02*
X130154819Y-123357142D01*
X130154819Y-123357142D02*
X130202438Y-123214285D01*
X130202438Y-123214285D02*
X130250057Y-123166666D01*
X130154819Y-122309523D02*
X130154819Y-122499999D01*
X130154819Y-122499999D02*
X130202438Y-122595237D01*
X130202438Y-122595237D02*
X130250057Y-122642856D01*
X130250057Y-122642856D02*
X130392914Y-122738094D01*
X130392914Y-122738094D02*
X130583390Y-122785713D01*
X130583390Y-122785713D02*
X130964342Y-122785713D01*
X130964342Y-122785713D02*
X131059580Y-122738094D01*
X131059580Y-122738094D02*
X131107200Y-122690475D01*
X131107200Y-122690475D02*
X131154819Y-122595237D01*
X131154819Y-122595237D02*
X131154819Y-122404761D01*
X131154819Y-122404761D02*
X131107200Y-122309523D01*
X131107200Y-122309523D02*
X131059580Y-122261904D01*
X131059580Y-122261904D02*
X130964342Y-122214285D01*
X130964342Y-122214285D02*
X130726247Y-122214285D01*
X130726247Y-122214285D02*
X130631009Y-122261904D01*
X130631009Y-122261904D02*
X130583390Y-122309523D01*
X130583390Y-122309523D02*
X130535771Y-122404761D01*
X130535771Y-122404761D02*
X130535771Y-122595237D01*
X130535771Y-122595237D02*
X130583390Y-122690475D01*
X130583390Y-122690475D02*
X130631009Y-122738094D01*
X130631009Y-122738094D02*
X130726247Y-122785713D01*
X171954819Y-106242857D02*
X171478628Y-106576190D01*
X171954819Y-106814285D02*
X170954819Y-106814285D01*
X170954819Y-106814285D02*
X170954819Y-106433333D01*
X170954819Y-106433333D02*
X171002438Y-106338095D01*
X171002438Y-106338095D02*
X171050057Y-106290476D01*
X171050057Y-106290476D02*
X171145295Y-106242857D01*
X171145295Y-106242857D02*
X171288152Y-106242857D01*
X171288152Y-106242857D02*
X171383390Y-106290476D01*
X171383390Y-106290476D02*
X171431009Y-106338095D01*
X171431009Y-106338095D02*
X171478628Y-106433333D01*
X171478628Y-106433333D02*
X171478628Y-106814285D01*
X171050057Y-105861904D02*
X171002438Y-105814285D01*
X171002438Y-105814285D02*
X170954819Y-105719047D01*
X170954819Y-105719047D02*
X170954819Y-105480952D01*
X170954819Y-105480952D02*
X171002438Y-105385714D01*
X171002438Y-105385714D02*
X171050057Y-105338095D01*
X171050057Y-105338095D02*
X171145295Y-105290476D01*
X171145295Y-105290476D02*
X171240533Y-105290476D01*
X171240533Y-105290476D02*
X171383390Y-105338095D01*
X171383390Y-105338095D02*
X171954819Y-105909523D01*
X171954819Y-105909523D02*
X171954819Y-105290476D01*
X171050057Y-104909523D02*
X171002438Y-104861904D01*
X171002438Y-104861904D02*
X170954819Y-104766666D01*
X170954819Y-104766666D02*
X170954819Y-104528571D01*
X170954819Y-104528571D02*
X171002438Y-104433333D01*
X171002438Y-104433333D02*
X171050057Y-104385714D01*
X171050057Y-104385714D02*
X171145295Y-104338095D01*
X171145295Y-104338095D02*
X171240533Y-104338095D01*
X171240533Y-104338095D02*
X171383390Y-104385714D01*
X171383390Y-104385714D02*
X171954819Y-104957142D01*
X171954819Y-104957142D02*
X171954819Y-104338095D01*
X149733333Y-90659580D02*
X149685714Y-90707200D01*
X149685714Y-90707200D02*
X149542857Y-90754819D01*
X149542857Y-90754819D02*
X149447619Y-90754819D01*
X149447619Y-90754819D02*
X149304762Y-90707200D01*
X149304762Y-90707200D02*
X149209524Y-90611961D01*
X149209524Y-90611961D02*
X149161905Y-90516723D01*
X149161905Y-90516723D02*
X149114286Y-90326247D01*
X149114286Y-90326247D02*
X149114286Y-90183390D01*
X149114286Y-90183390D02*
X149161905Y-89992914D01*
X149161905Y-89992914D02*
X149209524Y-89897676D01*
X149209524Y-89897676D02*
X149304762Y-89802438D01*
X149304762Y-89802438D02*
X149447619Y-89754819D01*
X149447619Y-89754819D02*
X149542857Y-89754819D01*
X149542857Y-89754819D02*
X149685714Y-89802438D01*
X149685714Y-89802438D02*
X149733333Y-89850057D01*
X150685714Y-90754819D02*
X150114286Y-90754819D01*
X150400000Y-90754819D02*
X150400000Y-89754819D01*
X150400000Y-89754819D02*
X150304762Y-89897676D01*
X150304762Y-89897676D02*
X150209524Y-89992914D01*
X150209524Y-89992914D02*
X150114286Y-90040533D01*
X168157142Y-68754819D02*
X167823809Y-68278628D01*
X167585714Y-68754819D02*
X167585714Y-67754819D01*
X167585714Y-67754819D02*
X167966666Y-67754819D01*
X167966666Y-67754819D02*
X168061904Y-67802438D01*
X168061904Y-67802438D02*
X168109523Y-67850057D01*
X168109523Y-67850057D02*
X168157142Y-67945295D01*
X168157142Y-67945295D02*
X168157142Y-68088152D01*
X168157142Y-68088152D02*
X168109523Y-68183390D01*
X168109523Y-68183390D02*
X168061904Y-68231009D01*
X168061904Y-68231009D02*
X167966666Y-68278628D01*
X167966666Y-68278628D02*
X167585714Y-68278628D01*
X169109523Y-68754819D02*
X168538095Y-68754819D01*
X168823809Y-68754819D02*
X168823809Y-67754819D01*
X168823809Y-67754819D02*
X168728571Y-67897676D01*
X168728571Y-67897676D02*
X168633333Y-67992914D01*
X168633333Y-67992914D02*
X168538095Y-68040533D01*
X169966666Y-68088152D02*
X169966666Y-68754819D01*
X169728571Y-67707200D02*
X169490476Y-68421485D01*
X169490476Y-68421485D02*
X170109523Y-68421485D01*
X156957142Y-69359580D02*
X156909523Y-69407200D01*
X156909523Y-69407200D02*
X156766666Y-69454819D01*
X156766666Y-69454819D02*
X156671428Y-69454819D01*
X156671428Y-69454819D02*
X156528571Y-69407200D01*
X156528571Y-69407200D02*
X156433333Y-69311961D01*
X156433333Y-69311961D02*
X156385714Y-69216723D01*
X156385714Y-69216723D02*
X156338095Y-69026247D01*
X156338095Y-69026247D02*
X156338095Y-68883390D01*
X156338095Y-68883390D02*
X156385714Y-68692914D01*
X156385714Y-68692914D02*
X156433333Y-68597676D01*
X156433333Y-68597676D02*
X156528571Y-68502438D01*
X156528571Y-68502438D02*
X156671428Y-68454819D01*
X156671428Y-68454819D02*
X156766666Y-68454819D01*
X156766666Y-68454819D02*
X156909523Y-68502438D01*
X156909523Y-68502438D02*
X156957142Y-68550057D01*
X157909523Y-69454819D02*
X157338095Y-69454819D01*
X157623809Y-69454819D02*
X157623809Y-68454819D01*
X157623809Y-68454819D02*
X157528571Y-68597676D01*
X157528571Y-68597676D02*
X157433333Y-68692914D01*
X157433333Y-68692914D02*
X157338095Y-68740533D01*
X158528571Y-68454819D02*
X158623809Y-68454819D01*
X158623809Y-68454819D02*
X158719047Y-68502438D01*
X158719047Y-68502438D02*
X158766666Y-68550057D01*
X158766666Y-68550057D02*
X158814285Y-68645295D01*
X158814285Y-68645295D02*
X158861904Y-68835771D01*
X158861904Y-68835771D02*
X158861904Y-69073866D01*
X158861904Y-69073866D02*
X158814285Y-69264342D01*
X158814285Y-69264342D02*
X158766666Y-69359580D01*
X158766666Y-69359580D02*
X158719047Y-69407200D01*
X158719047Y-69407200D02*
X158623809Y-69454819D01*
X158623809Y-69454819D02*
X158528571Y-69454819D01*
X158528571Y-69454819D02*
X158433333Y-69407200D01*
X158433333Y-69407200D02*
X158385714Y-69359580D01*
X158385714Y-69359580D02*
X158338095Y-69264342D01*
X158338095Y-69264342D02*
X158290476Y-69073866D01*
X158290476Y-69073866D02*
X158290476Y-68835771D01*
X158290476Y-68835771D02*
X158338095Y-68645295D01*
X158338095Y-68645295D02*
X158385714Y-68550057D01*
X158385714Y-68550057D02*
X158433333Y-68502438D01*
X158433333Y-68502438D02*
X158528571Y-68454819D01*
X150254819Y-103366666D02*
X149778628Y-103699999D01*
X150254819Y-103938094D02*
X149254819Y-103938094D01*
X149254819Y-103938094D02*
X149254819Y-103557142D01*
X149254819Y-103557142D02*
X149302438Y-103461904D01*
X149302438Y-103461904D02*
X149350057Y-103414285D01*
X149350057Y-103414285D02*
X149445295Y-103366666D01*
X149445295Y-103366666D02*
X149588152Y-103366666D01*
X149588152Y-103366666D02*
X149683390Y-103414285D01*
X149683390Y-103414285D02*
X149731009Y-103461904D01*
X149731009Y-103461904D02*
X149778628Y-103557142D01*
X149778628Y-103557142D02*
X149778628Y-103938094D01*
X149254819Y-102509523D02*
X149254819Y-102699999D01*
X149254819Y-102699999D02*
X149302438Y-102795237D01*
X149302438Y-102795237D02*
X149350057Y-102842856D01*
X149350057Y-102842856D02*
X149492914Y-102938094D01*
X149492914Y-102938094D02*
X149683390Y-102985713D01*
X149683390Y-102985713D02*
X150064342Y-102985713D01*
X150064342Y-102985713D02*
X150159580Y-102938094D01*
X150159580Y-102938094D02*
X150207200Y-102890475D01*
X150207200Y-102890475D02*
X150254819Y-102795237D01*
X150254819Y-102795237D02*
X150254819Y-102604761D01*
X150254819Y-102604761D02*
X150207200Y-102509523D01*
X150207200Y-102509523D02*
X150159580Y-102461904D01*
X150159580Y-102461904D02*
X150064342Y-102414285D01*
X150064342Y-102414285D02*
X149826247Y-102414285D01*
X149826247Y-102414285D02*
X149731009Y-102461904D01*
X149731009Y-102461904D02*
X149683390Y-102509523D01*
X149683390Y-102509523D02*
X149635771Y-102604761D01*
X149635771Y-102604761D02*
X149635771Y-102795237D01*
X149635771Y-102795237D02*
X149683390Y-102890475D01*
X149683390Y-102890475D02*
X149731009Y-102938094D01*
X149731009Y-102938094D02*
X149826247Y-102985713D01*
X165754819Y-106042857D02*
X165278628Y-106376190D01*
X165754819Y-106614285D02*
X164754819Y-106614285D01*
X164754819Y-106614285D02*
X164754819Y-106233333D01*
X164754819Y-106233333D02*
X164802438Y-106138095D01*
X164802438Y-106138095D02*
X164850057Y-106090476D01*
X164850057Y-106090476D02*
X164945295Y-106042857D01*
X164945295Y-106042857D02*
X165088152Y-106042857D01*
X165088152Y-106042857D02*
X165183390Y-106090476D01*
X165183390Y-106090476D02*
X165231009Y-106138095D01*
X165231009Y-106138095D02*
X165278628Y-106233333D01*
X165278628Y-106233333D02*
X165278628Y-106614285D01*
X164850057Y-105661904D02*
X164802438Y-105614285D01*
X164802438Y-105614285D02*
X164754819Y-105519047D01*
X164754819Y-105519047D02*
X164754819Y-105280952D01*
X164754819Y-105280952D02*
X164802438Y-105185714D01*
X164802438Y-105185714D02*
X164850057Y-105138095D01*
X164850057Y-105138095D02*
X164945295Y-105090476D01*
X164945295Y-105090476D02*
X165040533Y-105090476D01*
X165040533Y-105090476D02*
X165183390Y-105138095D01*
X165183390Y-105138095D02*
X165754819Y-105709523D01*
X165754819Y-105709523D02*
X165754819Y-105090476D01*
X164754819Y-104471428D02*
X164754819Y-104376190D01*
X164754819Y-104376190D02*
X164802438Y-104280952D01*
X164802438Y-104280952D02*
X164850057Y-104233333D01*
X164850057Y-104233333D02*
X164945295Y-104185714D01*
X164945295Y-104185714D02*
X165135771Y-104138095D01*
X165135771Y-104138095D02*
X165373866Y-104138095D01*
X165373866Y-104138095D02*
X165564342Y-104185714D01*
X165564342Y-104185714D02*
X165659580Y-104233333D01*
X165659580Y-104233333D02*
X165707200Y-104280952D01*
X165707200Y-104280952D02*
X165754819Y-104376190D01*
X165754819Y-104376190D02*
X165754819Y-104471428D01*
X165754819Y-104471428D02*
X165707200Y-104566666D01*
X165707200Y-104566666D02*
X165659580Y-104614285D01*
X165659580Y-104614285D02*
X165564342Y-104661904D01*
X165564342Y-104661904D02*
X165373866Y-104709523D01*
X165373866Y-104709523D02*
X165135771Y-104709523D01*
X165135771Y-104709523D02*
X164945295Y-104661904D01*
X164945295Y-104661904D02*
X164850057Y-104614285D01*
X164850057Y-104614285D02*
X164802438Y-104566666D01*
X164802438Y-104566666D02*
X164754819Y-104471428D01*
X168157142Y-65654819D02*
X167823809Y-65178628D01*
X167585714Y-65654819D02*
X167585714Y-64654819D01*
X167585714Y-64654819D02*
X167966666Y-64654819D01*
X167966666Y-64654819D02*
X168061904Y-64702438D01*
X168061904Y-64702438D02*
X168109523Y-64750057D01*
X168109523Y-64750057D02*
X168157142Y-64845295D01*
X168157142Y-64845295D02*
X168157142Y-64988152D01*
X168157142Y-64988152D02*
X168109523Y-65083390D01*
X168109523Y-65083390D02*
X168061904Y-65131009D01*
X168061904Y-65131009D02*
X167966666Y-65178628D01*
X167966666Y-65178628D02*
X167585714Y-65178628D01*
X169109523Y-65654819D02*
X168538095Y-65654819D01*
X168823809Y-65654819D02*
X168823809Y-64654819D01*
X168823809Y-64654819D02*
X168728571Y-64797676D01*
X168728571Y-64797676D02*
X168633333Y-64892914D01*
X168633333Y-64892914D02*
X168538095Y-64940533D01*
X169966666Y-64654819D02*
X169776190Y-64654819D01*
X169776190Y-64654819D02*
X169680952Y-64702438D01*
X169680952Y-64702438D02*
X169633333Y-64750057D01*
X169633333Y-64750057D02*
X169538095Y-64892914D01*
X169538095Y-64892914D02*
X169490476Y-65083390D01*
X169490476Y-65083390D02*
X169490476Y-65464342D01*
X169490476Y-65464342D02*
X169538095Y-65559580D01*
X169538095Y-65559580D02*
X169585714Y-65607200D01*
X169585714Y-65607200D02*
X169680952Y-65654819D01*
X169680952Y-65654819D02*
X169871428Y-65654819D01*
X169871428Y-65654819D02*
X169966666Y-65607200D01*
X169966666Y-65607200D02*
X170014285Y-65559580D01*
X170014285Y-65559580D02*
X170061904Y-65464342D01*
X170061904Y-65464342D02*
X170061904Y-65226247D01*
X170061904Y-65226247D02*
X170014285Y-65131009D01*
X170014285Y-65131009D02*
X169966666Y-65083390D01*
X169966666Y-65083390D02*
X169871428Y-65035771D01*
X169871428Y-65035771D02*
X169680952Y-65035771D01*
X169680952Y-65035771D02*
X169585714Y-65083390D01*
X169585714Y-65083390D02*
X169538095Y-65131009D01*
X169538095Y-65131009D02*
X169490476Y-65226247D01*
X154959580Y-108466666D02*
X155007200Y-108514285D01*
X155007200Y-108514285D02*
X155054819Y-108657142D01*
X155054819Y-108657142D02*
X155054819Y-108752380D01*
X155054819Y-108752380D02*
X155007200Y-108895237D01*
X155007200Y-108895237D02*
X154911961Y-108990475D01*
X154911961Y-108990475D02*
X154816723Y-109038094D01*
X154816723Y-109038094D02*
X154626247Y-109085713D01*
X154626247Y-109085713D02*
X154483390Y-109085713D01*
X154483390Y-109085713D02*
X154292914Y-109038094D01*
X154292914Y-109038094D02*
X154197676Y-108990475D01*
X154197676Y-108990475D02*
X154102438Y-108895237D01*
X154102438Y-108895237D02*
X154054819Y-108752380D01*
X154054819Y-108752380D02*
X154054819Y-108657142D01*
X154054819Y-108657142D02*
X154102438Y-108514285D01*
X154102438Y-108514285D02*
X154150057Y-108466666D01*
X154054819Y-107561904D02*
X154054819Y-108038094D01*
X154054819Y-108038094D02*
X154531009Y-108085713D01*
X154531009Y-108085713D02*
X154483390Y-108038094D01*
X154483390Y-108038094D02*
X154435771Y-107942856D01*
X154435771Y-107942856D02*
X154435771Y-107704761D01*
X154435771Y-107704761D02*
X154483390Y-107609523D01*
X154483390Y-107609523D02*
X154531009Y-107561904D01*
X154531009Y-107561904D02*
X154626247Y-107514285D01*
X154626247Y-107514285D02*
X154864342Y-107514285D01*
X154864342Y-107514285D02*
X154959580Y-107561904D01*
X154959580Y-107561904D02*
X155007200Y-107609523D01*
X155007200Y-107609523D02*
X155054819Y-107704761D01*
X155054819Y-107704761D02*
X155054819Y-107942856D01*
X155054819Y-107942856D02*
X155007200Y-108038094D01*
X155007200Y-108038094D02*
X154959580Y-108085713D01*
X155904761Y-91550057D02*
X155809523Y-91502438D01*
X155809523Y-91502438D02*
X155714285Y-91407200D01*
X155714285Y-91407200D02*
X155571428Y-91264342D01*
X155571428Y-91264342D02*
X155476190Y-91216723D01*
X155476190Y-91216723D02*
X155380952Y-91216723D01*
X155428571Y-91454819D02*
X155333333Y-91407200D01*
X155333333Y-91407200D02*
X155238095Y-91311961D01*
X155238095Y-91311961D02*
X155190476Y-91121485D01*
X155190476Y-91121485D02*
X155190476Y-90788152D01*
X155190476Y-90788152D02*
X155238095Y-90597676D01*
X155238095Y-90597676D02*
X155333333Y-90502438D01*
X155333333Y-90502438D02*
X155428571Y-90454819D01*
X155428571Y-90454819D02*
X155619047Y-90454819D01*
X155619047Y-90454819D02*
X155714285Y-90502438D01*
X155714285Y-90502438D02*
X155809523Y-90597676D01*
X155809523Y-90597676D02*
X155857142Y-90788152D01*
X155857142Y-90788152D02*
X155857142Y-91121485D01*
X155857142Y-91121485D02*
X155809523Y-91311961D01*
X155809523Y-91311961D02*
X155714285Y-91407200D01*
X155714285Y-91407200D02*
X155619047Y-91454819D01*
X155619047Y-91454819D02*
X155428571Y-91454819D01*
X156190476Y-90454819D02*
X156809523Y-90454819D01*
X156809523Y-90454819D02*
X156476190Y-90835771D01*
X156476190Y-90835771D02*
X156619047Y-90835771D01*
X156619047Y-90835771D02*
X156714285Y-90883390D01*
X156714285Y-90883390D02*
X156761904Y-90931009D01*
X156761904Y-90931009D02*
X156809523Y-91026247D01*
X156809523Y-91026247D02*
X156809523Y-91264342D01*
X156809523Y-91264342D02*
X156761904Y-91359580D01*
X156761904Y-91359580D02*
X156714285Y-91407200D01*
X156714285Y-91407200D02*
X156619047Y-91454819D01*
X156619047Y-91454819D02*
X156333333Y-91454819D01*
X156333333Y-91454819D02*
X156238095Y-91407200D01*
X156238095Y-91407200D02*
X156190476Y-91359580D01*
X166257142Y-98254819D02*
X165923809Y-97778628D01*
X165685714Y-98254819D02*
X165685714Y-97254819D01*
X165685714Y-97254819D02*
X166066666Y-97254819D01*
X166066666Y-97254819D02*
X166161904Y-97302438D01*
X166161904Y-97302438D02*
X166209523Y-97350057D01*
X166209523Y-97350057D02*
X166257142Y-97445295D01*
X166257142Y-97445295D02*
X166257142Y-97588152D01*
X166257142Y-97588152D02*
X166209523Y-97683390D01*
X166209523Y-97683390D02*
X166161904Y-97731009D01*
X166161904Y-97731009D02*
X166066666Y-97778628D01*
X166066666Y-97778628D02*
X165685714Y-97778628D01*
X166638095Y-97350057D02*
X166685714Y-97302438D01*
X166685714Y-97302438D02*
X166780952Y-97254819D01*
X166780952Y-97254819D02*
X167019047Y-97254819D01*
X167019047Y-97254819D02*
X167114285Y-97302438D01*
X167114285Y-97302438D02*
X167161904Y-97350057D01*
X167161904Y-97350057D02*
X167209523Y-97445295D01*
X167209523Y-97445295D02*
X167209523Y-97540533D01*
X167209523Y-97540533D02*
X167161904Y-97683390D01*
X167161904Y-97683390D02*
X166590476Y-98254819D01*
X166590476Y-98254819D02*
X167209523Y-98254819D01*
X168066666Y-97588152D02*
X168066666Y-98254819D01*
X167828571Y-97207200D02*
X167590476Y-97921485D01*
X167590476Y-97921485D02*
X168209523Y-97921485D01*
X155633333Y-96659580D02*
X155585714Y-96707200D01*
X155585714Y-96707200D02*
X155442857Y-96754819D01*
X155442857Y-96754819D02*
X155347619Y-96754819D01*
X155347619Y-96754819D02*
X155204762Y-96707200D01*
X155204762Y-96707200D02*
X155109524Y-96611961D01*
X155109524Y-96611961D02*
X155061905Y-96516723D01*
X155061905Y-96516723D02*
X155014286Y-96326247D01*
X155014286Y-96326247D02*
X155014286Y-96183390D01*
X155014286Y-96183390D02*
X155061905Y-95992914D01*
X155061905Y-95992914D02*
X155109524Y-95897676D01*
X155109524Y-95897676D02*
X155204762Y-95802438D01*
X155204762Y-95802438D02*
X155347619Y-95754819D01*
X155347619Y-95754819D02*
X155442857Y-95754819D01*
X155442857Y-95754819D02*
X155585714Y-95802438D01*
X155585714Y-95802438D02*
X155633333Y-95850057D01*
X156490476Y-96088152D02*
X156490476Y-96754819D01*
X156252381Y-95707200D02*
X156014286Y-96421485D01*
X156014286Y-96421485D02*
X156633333Y-96421485D01*
X158659580Y-57442857D02*
X158707200Y-57490476D01*
X158707200Y-57490476D02*
X158754819Y-57633333D01*
X158754819Y-57633333D02*
X158754819Y-57728571D01*
X158754819Y-57728571D02*
X158707200Y-57871428D01*
X158707200Y-57871428D02*
X158611961Y-57966666D01*
X158611961Y-57966666D02*
X158516723Y-58014285D01*
X158516723Y-58014285D02*
X158326247Y-58061904D01*
X158326247Y-58061904D02*
X158183390Y-58061904D01*
X158183390Y-58061904D02*
X157992914Y-58014285D01*
X157992914Y-58014285D02*
X157897676Y-57966666D01*
X157897676Y-57966666D02*
X157802438Y-57871428D01*
X157802438Y-57871428D02*
X157754819Y-57728571D01*
X157754819Y-57728571D02*
X157754819Y-57633333D01*
X157754819Y-57633333D02*
X157802438Y-57490476D01*
X157802438Y-57490476D02*
X157850057Y-57442857D01*
X158754819Y-56490476D02*
X158754819Y-57061904D01*
X158754819Y-56776190D02*
X157754819Y-56776190D01*
X157754819Y-56776190D02*
X157897676Y-56871428D01*
X157897676Y-56871428D02*
X157992914Y-56966666D01*
X157992914Y-56966666D02*
X158040533Y-57061904D01*
X157850057Y-56109523D02*
X157802438Y-56061904D01*
X157802438Y-56061904D02*
X157754819Y-55966666D01*
X157754819Y-55966666D02*
X157754819Y-55728571D01*
X157754819Y-55728571D02*
X157802438Y-55633333D01*
X157802438Y-55633333D02*
X157850057Y-55585714D01*
X157850057Y-55585714D02*
X157945295Y-55538095D01*
X157945295Y-55538095D02*
X158040533Y-55538095D01*
X158040533Y-55538095D02*
X158183390Y-55585714D01*
X158183390Y-55585714D02*
X158754819Y-56157142D01*
X158754819Y-56157142D02*
X158754819Y-55538095D01*
X136553333Y-104654819D02*
X136220000Y-104178628D01*
X135981905Y-104654819D02*
X135981905Y-103654819D01*
X135981905Y-103654819D02*
X136362857Y-103654819D01*
X136362857Y-103654819D02*
X136458095Y-103702438D01*
X136458095Y-103702438D02*
X136505714Y-103750057D01*
X136505714Y-103750057D02*
X136553333Y-103845295D01*
X136553333Y-103845295D02*
X136553333Y-103988152D01*
X136553333Y-103988152D02*
X136505714Y-104083390D01*
X136505714Y-104083390D02*
X136458095Y-104131009D01*
X136458095Y-104131009D02*
X136362857Y-104178628D01*
X136362857Y-104178628D02*
X135981905Y-104178628D01*
X137458095Y-103654819D02*
X136981905Y-103654819D01*
X136981905Y-103654819D02*
X136934286Y-104131009D01*
X136934286Y-104131009D02*
X136981905Y-104083390D01*
X136981905Y-104083390D02*
X137077143Y-104035771D01*
X137077143Y-104035771D02*
X137315238Y-104035771D01*
X137315238Y-104035771D02*
X137410476Y-104083390D01*
X137410476Y-104083390D02*
X137458095Y-104131009D01*
X137458095Y-104131009D02*
X137505714Y-104226247D01*
X137505714Y-104226247D02*
X137505714Y-104464342D01*
X137505714Y-104464342D02*
X137458095Y-104559580D01*
X137458095Y-104559580D02*
X137410476Y-104607200D01*
X137410476Y-104607200D02*
X137315238Y-104654819D01*
X137315238Y-104654819D02*
X137077143Y-104654819D01*
X137077143Y-104654819D02*
X136981905Y-104607200D01*
X136981905Y-104607200D02*
X136934286Y-104559580D01*
X153254819Y-103366666D02*
X152778628Y-103699999D01*
X153254819Y-103938094D02*
X152254819Y-103938094D01*
X152254819Y-103938094D02*
X152254819Y-103557142D01*
X152254819Y-103557142D02*
X152302438Y-103461904D01*
X152302438Y-103461904D02*
X152350057Y-103414285D01*
X152350057Y-103414285D02*
X152445295Y-103366666D01*
X152445295Y-103366666D02*
X152588152Y-103366666D01*
X152588152Y-103366666D02*
X152683390Y-103414285D01*
X152683390Y-103414285D02*
X152731009Y-103461904D01*
X152731009Y-103461904D02*
X152778628Y-103557142D01*
X152778628Y-103557142D02*
X152778628Y-103938094D01*
X152254819Y-103033332D02*
X152254819Y-102366666D01*
X152254819Y-102366666D02*
X153254819Y-102795237D01*
X133154819Y-60538094D02*
X132154819Y-60538094D01*
X132154819Y-60538094D02*
X132154819Y-60299999D01*
X132154819Y-60299999D02*
X132202438Y-60157142D01*
X132202438Y-60157142D02*
X132297676Y-60061904D01*
X132297676Y-60061904D02*
X132392914Y-60014285D01*
X132392914Y-60014285D02*
X132583390Y-59966666D01*
X132583390Y-59966666D02*
X132726247Y-59966666D01*
X132726247Y-59966666D02*
X132916723Y-60014285D01*
X132916723Y-60014285D02*
X133011961Y-60061904D01*
X133011961Y-60061904D02*
X133107200Y-60157142D01*
X133107200Y-60157142D02*
X133154819Y-60299999D01*
X133154819Y-60299999D02*
X133154819Y-60538094D01*
X132488152Y-59109523D02*
X133154819Y-59109523D01*
X132107200Y-59347618D02*
X132821485Y-59585713D01*
X132821485Y-59585713D02*
X132821485Y-58966666D01*
X133154819Y-52861904D02*
X132154819Y-52861904D01*
X133154819Y-52290476D02*
X132583390Y-52719047D01*
X132154819Y-52290476D02*
X132726247Y-52861904D01*
X136553333Y-107554819D02*
X136220000Y-107078628D01*
X135981905Y-107554819D02*
X135981905Y-106554819D01*
X135981905Y-106554819D02*
X136362857Y-106554819D01*
X136362857Y-106554819D02*
X136458095Y-106602438D01*
X136458095Y-106602438D02*
X136505714Y-106650057D01*
X136505714Y-106650057D02*
X136553333Y-106745295D01*
X136553333Y-106745295D02*
X136553333Y-106888152D01*
X136553333Y-106888152D02*
X136505714Y-106983390D01*
X136505714Y-106983390D02*
X136458095Y-107031009D01*
X136458095Y-107031009D02*
X136362857Y-107078628D01*
X136362857Y-107078628D02*
X135981905Y-107078628D01*
X137124762Y-106983390D02*
X137029524Y-106935771D01*
X137029524Y-106935771D02*
X136981905Y-106888152D01*
X136981905Y-106888152D02*
X136934286Y-106792914D01*
X136934286Y-106792914D02*
X136934286Y-106745295D01*
X136934286Y-106745295D02*
X136981905Y-106650057D01*
X136981905Y-106650057D02*
X137029524Y-106602438D01*
X137029524Y-106602438D02*
X137124762Y-106554819D01*
X137124762Y-106554819D02*
X137315238Y-106554819D01*
X137315238Y-106554819D02*
X137410476Y-106602438D01*
X137410476Y-106602438D02*
X137458095Y-106650057D01*
X137458095Y-106650057D02*
X137505714Y-106745295D01*
X137505714Y-106745295D02*
X137505714Y-106792914D01*
X137505714Y-106792914D02*
X137458095Y-106888152D01*
X137458095Y-106888152D02*
X137410476Y-106935771D01*
X137410476Y-106935771D02*
X137315238Y-106983390D01*
X137315238Y-106983390D02*
X137124762Y-106983390D01*
X137124762Y-106983390D02*
X137029524Y-107031009D01*
X137029524Y-107031009D02*
X136981905Y-107078628D01*
X136981905Y-107078628D02*
X136934286Y-107173866D01*
X136934286Y-107173866D02*
X136934286Y-107364342D01*
X136934286Y-107364342D02*
X136981905Y-107459580D01*
X136981905Y-107459580D02*
X137029524Y-107507200D01*
X137029524Y-107507200D02*
X137124762Y-107554819D01*
X137124762Y-107554819D02*
X137315238Y-107554819D01*
X137315238Y-107554819D02*
X137410476Y-107507200D01*
X137410476Y-107507200D02*
X137458095Y-107459580D01*
X137458095Y-107459580D02*
X137505714Y-107364342D01*
X137505714Y-107364342D02*
X137505714Y-107173866D01*
X137505714Y-107173866D02*
X137458095Y-107078628D01*
X137458095Y-107078628D02*
X137410476Y-107031009D01*
X137410476Y-107031009D02*
X137315238Y-106983390D01*
X168157142Y-56554819D02*
X167823809Y-56078628D01*
X167585714Y-56554819D02*
X167585714Y-55554819D01*
X167585714Y-55554819D02*
X167966666Y-55554819D01*
X167966666Y-55554819D02*
X168061904Y-55602438D01*
X168061904Y-55602438D02*
X168109523Y-55650057D01*
X168109523Y-55650057D02*
X168157142Y-55745295D01*
X168157142Y-55745295D02*
X168157142Y-55888152D01*
X168157142Y-55888152D02*
X168109523Y-55983390D01*
X168109523Y-55983390D02*
X168061904Y-56031009D01*
X168061904Y-56031009D02*
X167966666Y-56078628D01*
X167966666Y-56078628D02*
X167585714Y-56078628D01*
X169109523Y-56554819D02*
X168538095Y-56554819D01*
X168823809Y-56554819D02*
X168823809Y-55554819D01*
X168823809Y-55554819D02*
X168728571Y-55697676D01*
X168728571Y-55697676D02*
X168633333Y-55792914D01*
X168633333Y-55792914D02*
X168538095Y-55840533D01*
X169680952Y-55983390D02*
X169585714Y-55935771D01*
X169585714Y-55935771D02*
X169538095Y-55888152D01*
X169538095Y-55888152D02*
X169490476Y-55792914D01*
X169490476Y-55792914D02*
X169490476Y-55745295D01*
X169490476Y-55745295D02*
X169538095Y-55650057D01*
X169538095Y-55650057D02*
X169585714Y-55602438D01*
X169585714Y-55602438D02*
X169680952Y-55554819D01*
X169680952Y-55554819D02*
X169871428Y-55554819D01*
X169871428Y-55554819D02*
X169966666Y-55602438D01*
X169966666Y-55602438D02*
X170014285Y-55650057D01*
X170014285Y-55650057D02*
X170061904Y-55745295D01*
X170061904Y-55745295D02*
X170061904Y-55792914D01*
X170061904Y-55792914D02*
X170014285Y-55888152D01*
X170014285Y-55888152D02*
X169966666Y-55935771D01*
X169966666Y-55935771D02*
X169871428Y-55983390D01*
X169871428Y-55983390D02*
X169680952Y-55983390D01*
X169680952Y-55983390D02*
X169585714Y-56031009D01*
X169585714Y-56031009D02*
X169538095Y-56078628D01*
X169538095Y-56078628D02*
X169490476Y-56173866D01*
X169490476Y-56173866D02*
X169490476Y-56364342D01*
X169490476Y-56364342D02*
X169538095Y-56459580D01*
X169538095Y-56459580D02*
X169585714Y-56507200D01*
X169585714Y-56507200D02*
X169680952Y-56554819D01*
X169680952Y-56554819D02*
X169871428Y-56554819D01*
X169871428Y-56554819D02*
X169966666Y-56507200D01*
X169966666Y-56507200D02*
X170014285Y-56459580D01*
X170014285Y-56459580D02*
X170061904Y-56364342D01*
X170061904Y-56364342D02*
X170061904Y-56173866D01*
X170061904Y-56173866D02*
X170014285Y-56078628D01*
X170014285Y-56078628D02*
X169966666Y-56031009D01*
X169966666Y-56031009D02*
X169871428Y-55983390D01*
D16*
%TO.C,R13*%
X132660000Y-129500000D02*
X133430000Y-129500000D01*
X133430000Y-128130000D02*
X133430000Y-130870000D01*
X133430000Y-130870000D02*
X139970000Y-130870000D01*
X139970000Y-128130000D02*
X133430000Y-128130000D01*
X139970000Y-130870000D02*
X139970000Y-128130000D01*
X140740000Y-129500000D02*
X139970000Y-129500000D01*
%TO.C,C9*%
X152880000Y-114980000D02*
X156120000Y-114980000D01*
X152880000Y-119820000D02*
X152880000Y-114980000D01*
X152880000Y-119820000D02*
X156120000Y-119820000D01*
X156120000Y-119820000D02*
X156120000Y-114980000D01*
%TO.C,R12*%
X134530000Y-56230000D02*
X134530000Y-62770000D01*
X134530000Y-62770000D02*
X137270000Y-62770000D01*
X135900000Y-55460000D02*
X135900000Y-56230000D01*
X135900000Y-63540000D02*
X135900000Y-62770000D01*
X137270000Y-56230000D02*
X134530000Y-56230000D01*
X137270000Y-62770000D02*
X137270000Y-56230000D01*
%TO.C,D2*%
X145040000Y-116100000D02*
X145690000Y-116100000D01*
X145690000Y-114980000D02*
X145690000Y-117220000D01*
X145690000Y-117220000D02*
X149930000Y-117220000D01*
X149090000Y-117220000D02*
X149090000Y-114980000D01*
X149210000Y-117220000D02*
X149210000Y-114980000D01*
X149330000Y-117220000D02*
X149330000Y-114980000D01*
X149930000Y-114980000D02*
X145690000Y-114980000D01*
X149930000Y-117220000D02*
X149930000Y-114980000D01*
X150580000Y-116100000D02*
X149930000Y-116100000D01*
%TO.C,D1*%
X133830000Y-110000000D02*
X134480000Y-110000000D01*
X134480000Y-108880000D02*
X134480000Y-111120000D01*
X134480000Y-111120000D02*
X138720000Y-111120000D01*
X137880000Y-111120000D02*
X137880000Y-108880000D01*
X138000000Y-111120000D02*
X138000000Y-108880000D01*
X138120000Y-111120000D02*
X138120000Y-108880000D01*
X138720000Y-108880000D02*
X134480000Y-108880000D01*
X138720000Y-111120000D02*
X138720000Y-108880000D01*
X139370000Y-110000000D02*
X138720000Y-110000000D01*
%TO.C,C8*%
X137030000Y-121380000D02*
X137030000Y-124620000D01*
X137030000Y-121380000D02*
X141870000Y-121380000D01*
X137030000Y-124620000D02*
X141870000Y-124620000D01*
X141870000Y-121380000D02*
X141870000Y-124620000D01*
%TO.C,RV2*%
X147620000Y-67845000D02*
X147620000Y-63125000D01*
X147630000Y-59315000D02*
X147630000Y-56255000D01*
X148810000Y-67845000D02*
X147630000Y-67845000D01*
X151710000Y-67845000D02*
X151180000Y-67845000D01*
X154160000Y-67845000D02*
X153330000Y-67845000D01*
X157370000Y-56255000D02*
X147630000Y-56255000D01*
X157370000Y-59315000D02*
X157370000Y-56255000D01*
X157370000Y-67845000D02*
X155880000Y-67845000D01*
X157370000Y-67845000D02*
X157370000Y-63125000D01*
%TO.C,D3*%
X145040000Y-118600000D02*
X145690000Y-118600000D01*
X145690000Y-117480000D02*
X145690000Y-119720000D01*
X145690000Y-119720000D02*
X149930000Y-119720000D01*
X146290000Y-117480000D02*
X146290000Y-119720000D01*
X146410000Y-117480000D02*
X146410000Y-119720000D01*
X146530000Y-117480000D02*
X146530000Y-119720000D01*
X149930000Y-117480000D02*
X145690000Y-117480000D01*
X149930000Y-119720000D02*
X149930000Y-117480000D01*
X150580000Y-118600000D02*
X149930000Y-118600000D01*
%TO.C,C3*%
X143080000Y-99880000D02*
X143080000Y-103120000D01*
X143080000Y-99880000D02*
X147920000Y-99880000D01*
X143080000Y-103120000D02*
X147920000Y-103120000D01*
X147920000Y-99880000D02*
X147920000Y-103120000D01*
%TO.C,C11*%
X159180000Y-59680000D02*
X159180000Y-64520000D01*
X162420000Y-59680000D02*
X159180000Y-59680000D01*
X162420000Y-59680000D02*
X162420000Y-64520000D01*
X162420000Y-64520000D02*
X159180000Y-64520000D01*
%TO.C,Q1*%
X143150000Y-91570000D02*
X143150000Y-95170000D01*
X143161522Y-91531522D02*
G75*
G02*
X147600001Y-93370000I1838478J-1838478D01*
G01*
X147600000Y-93370000D02*
G75*
G02*
X143161522Y-95208478I-2600000J0D01*
G01*
%TO.C,C2*%
X143080000Y-96280000D02*
X143080000Y-99520000D01*
X143080000Y-96280000D02*
X147920000Y-96280000D01*
X143080000Y-99520000D02*
X147920000Y-99520000D01*
X147920000Y-96280000D02*
X147920000Y-99520000D01*
%TO.C,U1*%
X131550000Y-113560000D02*
X131550000Y-118860000D01*
X131550000Y-118860000D02*
X141830000Y-118860000D01*
X141830000Y-113560000D02*
X131550000Y-113560000D01*
X141830000Y-115210000D02*
X141830000Y-113560000D01*
X141830000Y-118860000D02*
X141830000Y-117210000D01*
X141830000Y-117210000D02*
G75*
G02*
X141830000Y-115210000I0J1000000D01*
G01*
%TO.C,R15*%
X164760000Y-62300000D02*
X165530000Y-62300000D01*
X165530000Y-60930000D02*
X165530000Y-63670000D01*
X165530000Y-63670000D02*
X172070000Y-63670000D01*
X172070000Y-60930000D02*
X165530000Y-60930000D01*
X172070000Y-63670000D02*
X172070000Y-60930000D01*
X172840000Y-62300000D02*
X172070000Y-62300000D01*
%TO.C,RV3*%
X162620000Y-51145000D02*
X162620000Y-46425000D01*
X162630000Y-42615000D02*
X162630000Y-39555000D01*
X163810000Y-51145000D02*
X162630000Y-51145000D01*
X166710000Y-51145000D02*
X166180000Y-51145000D01*
X169160000Y-51145000D02*
X168330000Y-51145000D01*
X172370000Y-39555000D02*
X162630000Y-39555000D01*
X172370000Y-42615000D02*
X172370000Y-39555000D01*
X172370000Y-51145000D02*
X170880000Y-51145000D01*
X172370000Y-51145000D02*
X172370000Y-46425000D01*
%TO.C,C13*%
X155480000Y-109780000D02*
X158720000Y-109780000D01*
X155480000Y-114620000D02*
X155480000Y-109780000D01*
X155480000Y-114620000D02*
X158720000Y-114620000D01*
X158720000Y-114620000D02*
X158720000Y-109780000D01*
%TO.C,R10*%
X145060000Y-113300000D02*
X145830000Y-113300000D01*
X145830000Y-111930000D02*
X145830000Y-114670000D01*
X145830000Y-114670000D02*
X152370000Y-114670000D01*
X152370000Y-111930000D02*
X145830000Y-111930000D01*
X152370000Y-114670000D02*
X152370000Y-111930000D01*
X153140000Y-113300000D02*
X152370000Y-113300000D01*
%TO.C,R4*%
X132680000Y-101200000D02*
X133450000Y-101200000D01*
X133450000Y-99830000D02*
X133450000Y-102570000D01*
X133450000Y-102570000D02*
X139990000Y-102570000D01*
X139990000Y-99830000D02*
X133450000Y-99830000D01*
X139990000Y-102570000D02*
X139990000Y-99830000D01*
X140760000Y-101200000D02*
X139990000Y-101200000D01*
%TO.C,C15*%
X142220000Y-63500000D02*
G75*
G02*
X137980000Y-63500000I-2120000J0D01*
G01*
X137980000Y-63500000D02*
G75*
G02*
X142220000Y-63500000I2120000J0D01*
G01*
%TO.C,R21*%
X167030000Y-102330000D02*
X167030000Y-108870000D01*
X167030000Y-108870000D02*
X169770000Y-108870000D01*
X168400000Y-101560000D02*
X168400000Y-102330000D01*
X168400000Y-109640000D02*
X168400000Y-108870000D01*
X169770000Y-102330000D02*
X167030000Y-102330000D01*
X169770000Y-108870000D02*
X169770000Y-102330000D01*
%TO.C,R19*%
X160830000Y-102330000D02*
X160830000Y-108870000D01*
X160830000Y-108870000D02*
X163570000Y-108870000D01*
X162200000Y-101560000D02*
X162200000Y-102330000D01*
X162200000Y-109640000D02*
X162200000Y-108870000D01*
X163570000Y-102330000D02*
X160830000Y-102330000D01*
X163570000Y-108870000D02*
X163570000Y-102330000D01*
%TO.C,R25*%
X162860000Y-91700000D02*
X163630000Y-91700000D01*
X163630000Y-90330000D02*
X163630000Y-93070000D01*
X163630000Y-93070000D02*
X170170000Y-93070000D01*
X170170000Y-90330000D02*
X163630000Y-90330000D01*
X170170000Y-93070000D02*
X170170000Y-90330000D01*
X170940000Y-91700000D02*
X170170000Y-91700000D01*
%TO.C,RV1*%
X132620000Y-51245000D02*
X132620000Y-46525000D01*
X132630000Y-42715000D02*
X132630000Y-39655000D01*
X133810000Y-51245000D02*
X132630000Y-51245000D01*
X136710000Y-51245000D02*
X136180000Y-51245000D01*
X139160000Y-51245000D02*
X138330000Y-51245000D01*
X142370000Y-39655000D02*
X132630000Y-39655000D01*
X142370000Y-42715000D02*
X142370000Y-39655000D01*
X142370000Y-51245000D02*
X140880000Y-51245000D01*
X142370000Y-51245000D02*
X142370000Y-46525000D01*
%TO.C,R23*%
X162860000Y-94700000D02*
X163630000Y-94700000D01*
X163630000Y-93330000D02*
X163630000Y-96070000D01*
X163630000Y-96070000D02*
X170170000Y-96070000D01*
X170170000Y-93330000D02*
X163630000Y-93330000D01*
X170170000Y-96070000D02*
X170170000Y-93330000D01*
X170940000Y-94700000D02*
X170170000Y-94700000D01*
%TO.C,Q2*%
X143150000Y-104230000D02*
X143150000Y-107830000D01*
X143161522Y-104191522D02*
G75*
G02*
X147600001Y-106030000I1838478J-1838478D01*
G01*
X147600000Y-106030000D02*
G75*
G02*
X143161522Y-107868478I-2600000J0D01*
G01*
%TO.C,R2*%
X132680000Y-95200000D02*
X133450000Y-95200000D01*
X133450000Y-93830000D02*
X133450000Y-96570000D01*
X133450000Y-96570000D02*
X139990000Y-96570000D01*
X139990000Y-93830000D02*
X133450000Y-93830000D01*
X139990000Y-96570000D02*
X139990000Y-93830000D01*
X140760000Y-95200000D02*
X139990000Y-95200000D01*
%TO.C,J5*%
D15*
X156500000Y-69900000D02*
X177500000Y-69900000D01*
X177500000Y-89900000D01*
X156500000Y-89900000D01*
X156500000Y-69900000D01*
X177500000Y-74400000D02*
X181500000Y-74400000D01*
X181500000Y-85400000D01*
X177500000Y-85400000D01*
X177500000Y-74400000D01*
D16*
%TO.C,R3*%
X132680000Y-98200000D02*
X133450000Y-98200000D01*
X133450000Y-96830000D02*
X133450000Y-99570000D01*
X133450000Y-99570000D02*
X139990000Y-99570000D01*
X139990000Y-96830000D02*
X133450000Y-96830000D01*
X139990000Y-99570000D02*
X139990000Y-96830000D01*
X140760000Y-98200000D02*
X139990000Y-98200000D01*
%TO.C,R17*%
X164760000Y-59200000D02*
X165530000Y-59200000D01*
X165530000Y-57830000D02*
X165530000Y-60570000D01*
X165530000Y-60570000D02*
X172070000Y-60570000D01*
X172070000Y-57830000D02*
X165530000Y-57830000D01*
X172070000Y-60570000D02*
X172070000Y-57830000D01*
X172840000Y-59200000D02*
X172070000Y-59200000D01*
%TO.C,C14*%
X142220000Y-55700000D02*
G75*
G02*
X137980000Y-55700000I-2120000J0D01*
G01*
X137980000Y-55700000D02*
G75*
G02*
X142220000Y-55700000I2120000J0D01*
G01*
%TO.C,J3*%
X147880000Y-37680000D02*
X147880000Y-45800000D01*
X147880000Y-51200000D02*
X147880000Y-52420000D01*
X147880000Y-52420000D02*
X149550000Y-52420000D01*
X155450000Y-52420000D02*
X157120000Y-52420000D01*
X157120000Y-37680000D02*
X147880000Y-37680000D01*
X157120000Y-52420000D02*
X157120000Y-37680000D01*
%TO.C,C7*%
X134480000Y-69120000D02*
X134480000Y-65880000D01*
X139320000Y-65880000D02*
X134480000Y-65880000D01*
X139320000Y-69120000D02*
X134480000Y-69120000D01*
X139320000Y-69120000D02*
X139320000Y-65880000D01*
%TO.C,FTSW1*%
D17*
X142700000Y-120900000D02*
X162300000Y-120900000D01*
X162300000Y-138100000D01*
X142700000Y-138100000D01*
X142700000Y-120900000D01*
D16*
%TO.C,R11*%
X132660000Y-126500000D02*
X133430000Y-126500000D01*
X133430000Y-125130000D02*
X133430000Y-127870000D01*
X133430000Y-127870000D02*
X139970000Y-127870000D01*
X139970000Y-125130000D02*
X133430000Y-125130000D01*
X139970000Y-127870000D02*
X139970000Y-125130000D01*
X140740000Y-126500000D02*
X139970000Y-126500000D01*
%TO.C,R9*%
X145060000Y-110300000D02*
X145830000Y-110300000D01*
X145830000Y-108930000D02*
X145830000Y-111670000D01*
X145830000Y-111670000D02*
X152370000Y-111670000D01*
X152370000Y-108930000D02*
X145830000Y-108930000D01*
X152370000Y-111670000D02*
X152370000Y-108930000D01*
X153140000Y-110300000D02*
X152370000Y-110300000D01*
%TO.C,R1*%
X132680000Y-92100000D02*
X133450000Y-92100000D01*
X133450000Y-90730000D02*
X133450000Y-93470000D01*
X133450000Y-93470000D02*
X139990000Y-93470000D01*
X139990000Y-90730000D02*
X133450000Y-90730000D01*
X139990000Y-93470000D02*
X139990000Y-90730000D01*
X140760000Y-92100000D02*
X139990000Y-92100000D01*
%TO.C,D5*%
X150235000Y-85955000D02*
X150235000Y-89045000D01*
X150235000Y-85955170D02*
G75*
G02*
X155785000Y-87500462I2560000J-1544830D01*
G01*
X155785000Y-87499538D02*
G75*
G02*
X150235000Y-89044830I-2990000J-462D01*
G01*
X155295000Y-87500000D02*
G75*
G02*
X150295000Y-87500000I-2500000J0D01*
G01*
X150295000Y-87500000D02*
G75*
G02*
X155295000Y-87500000I2500000J0D01*
G01*
%TO.C,C6*%
X131430000Y-121380000D02*
X131430000Y-124620000D01*
X131430000Y-121380000D02*
X136270000Y-121380000D01*
X131430000Y-124620000D02*
X136270000Y-124620000D01*
X136270000Y-121380000D02*
X136270000Y-124620000D01*
%TO.C,R22*%
X170130000Y-102330000D02*
X170130000Y-108870000D01*
X170130000Y-108870000D02*
X172870000Y-108870000D01*
X171500000Y-101560000D02*
X171500000Y-102330000D01*
X171500000Y-109640000D02*
X171500000Y-108870000D01*
X172870000Y-102330000D02*
X170130000Y-102330000D01*
X172870000Y-108870000D02*
X172870000Y-102330000D01*
%TO.C,C1*%
X148580000Y-90980000D02*
X151820000Y-90980000D01*
X148580000Y-95820000D02*
X148580000Y-90980000D01*
X148580000Y-95820000D02*
X151820000Y-95820000D01*
X151820000Y-95820000D02*
X151820000Y-90980000D01*
%TO.C,R14*%
X164760000Y-68300000D02*
X165530000Y-68300000D01*
X165530000Y-66930000D02*
X165530000Y-69670000D01*
X165530000Y-69670000D02*
X172070000Y-69670000D01*
X172070000Y-66930000D02*
X165530000Y-66930000D01*
X172070000Y-69670000D02*
X172070000Y-66930000D01*
X172840000Y-68300000D02*
X172070000Y-68300000D01*
%TO.C,C10*%
X159180000Y-64880000D02*
X162420000Y-64880000D01*
X159180000Y-69720000D02*
X159180000Y-64880000D01*
X159180000Y-69720000D02*
X162420000Y-69720000D01*
X162420000Y-69720000D02*
X162420000Y-64880000D01*
%TO.C,R6*%
X148430000Y-99930000D02*
X148430000Y-106470000D01*
X148430000Y-106470000D02*
X151170000Y-106470000D01*
X149800000Y-99160000D02*
X149800000Y-99930000D01*
X149800000Y-107240000D02*
X149800000Y-106470000D01*
X151170000Y-99930000D02*
X148430000Y-99930000D01*
X151170000Y-106470000D02*
X151170000Y-99930000D01*
%TO.C,R20*%
X163930000Y-102330000D02*
X163930000Y-108870000D01*
X163930000Y-108870000D02*
X166670000Y-108870000D01*
X165300000Y-101560000D02*
X165300000Y-102330000D01*
X165300000Y-109640000D02*
X165300000Y-108870000D01*
X166670000Y-102330000D02*
X163930000Y-102330000D01*
X166670000Y-108870000D02*
X166670000Y-102330000D01*
%TO.C,R16*%
X164760000Y-65200000D02*
X165530000Y-65200000D01*
X165530000Y-63830000D02*
X165530000Y-66570000D01*
X165530000Y-66570000D02*
X172070000Y-66570000D01*
X172070000Y-63830000D02*
X165530000Y-63830000D01*
X172070000Y-66570000D02*
X172070000Y-63830000D01*
X172840000Y-65200000D02*
X172070000Y-65200000D01*
%TO.C,C5*%
X154480000Y-102380000D02*
X154480000Y-107220000D01*
X157720000Y-102380000D02*
X154480000Y-102380000D01*
X157720000Y-102380000D02*
X157720000Y-107220000D01*
X157720000Y-107220000D02*
X154480000Y-107220000D01*
%TO.C,Q3*%
X160450000Y-95470000D02*
X160450000Y-91870000D01*
X156000000Y-93670000D02*
G75*
G02*
X160438478Y-91831522I2600000J0D01*
G01*
X160438478Y-95508478D02*
G75*
G02*
X155999999Y-93670000I-1838478J1838478D01*
G01*
%TO.C,R24*%
X162860000Y-97800000D02*
X163630000Y-97800000D01*
X163630000Y-96430000D02*
X163630000Y-99170000D01*
X163630000Y-99170000D02*
X170170000Y-99170000D01*
X170170000Y-96430000D02*
X163630000Y-96430000D01*
X170170000Y-99170000D02*
X170170000Y-96430000D01*
X170940000Y-97800000D02*
X170170000Y-97800000D01*
%TO.C,C4*%
X154480000Y-97180000D02*
X154480000Y-102020000D01*
X157720000Y-97180000D02*
X154480000Y-97180000D01*
X157720000Y-97180000D02*
X157720000Y-102020000D01*
X157720000Y-102020000D02*
X154480000Y-102020000D01*
%TO.C,C12*%
X159180000Y-54430000D02*
X162420000Y-54430000D01*
X159180000Y-59270000D02*
X159180000Y-54430000D01*
X159180000Y-59270000D02*
X162420000Y-59270000D01*
X162420000Y-59270000D02*
X162420000Y-54430000D01*
%TO.C,J4*%
D15*
X127500000Y-85500000D02*
X123500000Y-85500000D01*
X123500000Y-74500000D01*
X127500000Y-74500000D01*
X127500000Y-85500000D01*
X148500000Y-90000000D02*
X127500000Y-90000000D01*
X127500000Y-70000000D01*
X148500000Y-70000000D01*
X148500000Y-90000000D01*
D16*
%TO.C,R5*%
X132680000Y-104200000D02*
X133450000Y-104200000D01*
X133450000Y-102830000D02*
X133450000Y-105570000D01*
X133450000Y-105570000D02*
X139990000Y-105570000D01*
X139990000Y-102830000D02*
X133450000Y-102830000D01*
X139990000Y-105570000D02*
X139990000Y-102830000D01*
X140760000Y-104200000D02*
X139990000Y-104200000D01*
%TO.C,R7*%
X151430000Y-99930000D02*
X151430000Y-106470000D01*
X151430000Y-106470000D02*
X154170000Y-106470000D01*
X152800000Y-99160000D02*
X152800000Y-99930000D01*
X152800000Y-107240000D02*
X152800000Y-106470000D01*
X154170000Y-99930000D02*
X151430000Y-99930000D01*
X154170000Y-106470000D02*
X154170000Y-99930000D01*
%TO.C,D4*%
X131230000Y-57080000D02*
X131230000Y-62520000D01*
X131230000Y-62520000D02*
X134170000Y-62520000D01*
X132700000Y-56060000D02*
X132700000Y-57080000D01*
X132700000Y-63540000D02*
X132700000Y-62520000D01*
X134170000Y-57080000D02*
X131230000Y-57080000D01*
X134170000Y-57860000D02*
X131230000Y-57860000D01*
X134170000Y-57980000D02*
X131230000Y-57980000D01*
X134170000Y-58100000D02*
X131230000Y-58100000D01*
X134170000Y-62520000D02*
X134170000Y-57080000D01*
%TO.C,R8*%
X132680000Y-107200000D02*
X133450000Y-107200000D01*
X133450000Y-105830000D02*
X133450000Y-108570000D01*
X133450000Y-108570000D02*
X139990000Y-108570000D01*
X139990000Y-105830000D02*
X133450000Y-105830000D01*
X139990000Y-108570000D02*
X139990000Y-105830000D01*
X140760000Y-107200000D02*
X139990000Y-107200000D01*
%TO.C,R18*%
X164760000Y-56100000D02*
X165530000Y-56100000D01*
X165530000Y-54730000D02*
X165530000Y-57470000D01*
X165530000Y-57470000D02*
X172070000Y-57470000D01*
X172070000Y-54730000D02*
X165530000Y-54730000D01*
X172070000Y-57470000D02*
X172070000Y-54730000D01*
X172840000Y-56100000D02*
X172070000Y-56100000D01*
%TD*%
M02*
