%TF.GenerationSoftware,KiCad,Pcbnew,8.0.3*%
%TF.CreationDate,2024-11-20T17:39:26+02:00*%
%TF.ProjectId,DST1,44535431-2e6b-4696-9361-645f70636258,rev?*%
%TF.SameCoordinates,Original*%
%TF.FileFunction,Soldermask,Top*%
%TF.FilePolarity,Negative*%
%FSLAX46Y46*%
G04 Gerber Fmt 4.6, Leading zero omitted, Abs format (unit mm)*
G04 Created by KiCad (PCBNEW 8.0.3) date 2024-11-20 17:39:26*
%MOMM*%
%LPD*%
G01*
G04 APERTURE LIST*
G04 Aperture macros list*
%AMRoundRect*
0 Rectangle with rounded corners*
0 $1 Rounding radius*
0 $2 $3 $4 $5 $6 $7 $8 $9 X,Y pos of 4 corners*
0 Add a 4 corners polygon primitive as box body*
4,1,4,$2,$3,$4,$5,$6,$7,$8,$9,$2,$3,0*
0 Add four circle primitives for the rounded corners*
1,1,$1+$1,$2,$3*
1,1,$1+$1,$4,$5*
1,1,$1+$1,$6,$7*
1,1,$1+$1,$8,$9*
0 Add four rect primitives between the rounded corners*
20,1,$1+$1,$2,$3,$4,$5,0*
20,1,$1+$1,$4,$5,$6,$7,0*
20,1,$1+$1,$6,$7,$8,$9,0*
20,1,$1+$1,$8,$9,$2,$3,0*%
G04 Aperture macros list end*
%ADD10C,5.700000*%
%ADD11C,1.600000*%
%ADD12O,1.600000X1.600000*%
%ADD13C,1.400000*%
%ADD14R,1.600000X1.600000*%
%ADD15O,2.720000X3.240000*%
%ADD16R,1.800000X1.800000*%
%ADD17C,1.800000*%
%ADD18R,1.300000X1.300000*%
%ADD19C,1.300000*%
%ADD20C,1.200000*%
%ADD21C,2.375700*%
%ADD22R,4.500000X2.000000*%
%ADD23O,4.000000X2.000000*%
%ADD24O,2.000000X4.000000*%
%ADD25RoundRect,0.656168X-1.093832X-0.343832X1.093832X-0.343832X1.093832X0.343832X-1.093832X0.343832X0*%
%ADD26R,2.200000X2.200000*%
%ADD27O,2.200000X2.200000*%
G04 APERTURE END LIST*
D10*
%TO.C,*%
X137500000Y-44600000D03*
%TD*%
%TO.C,*%
X167500000Y-44500000D03*
%TD*%
%TO.C,*%
X132500000Y-134500000D03*
%TD*%
%TO.C,*%
X172500000Y-134500000D03*
%TD*%
D11*
%TO.C,R17*%
X141800000Y-129500000D03*
D12*
X131640000Y-129500000D03*
%TD*%
D13*
%TO.C,C9*%
X154500000Y-118650000D03*
X154500000Y-116150000D03*
%TD*%
D11*
%TO.C,R16*%
X135900000Y-54420000D03*
D12*
X135900000Y-64580000D03*
%TD*%
D14*
%TO.C,D4*%
X151620000Y-116100000D03*
D12*
X144000000Y-116100000D03*
%TD*%
D14*
%TO.C,D3*%
X140510000Y-113200000D03*
D12*
X132890000Y-113200000D03*
%TD*%
D13*
%TO.C,C7*%
X129400000Y-123650000D03*
X129400000Y-121150000D03*
%TD*%
D15*
%TO.C,RV2*%
X147700000Y-61225000D03*
X157300000Y-61225000D03*
D16*
X150000000Y-68725000D03*
D17*
X152500000Y-68725000D03*
X155000000Y-68725000D03*
%TD*%
D14*
%TO.C,D5*%
X144000000Y-118600000D03*
D12*
X151620000Y-118600000D03*
%TD*%
D13*
%TO.C,C3*%
X144250000Y-101500000D03*
X146750000Y-101500000D03*
%TD*%
%TO.C,C11*%
X160800000Y-60850000D03*
X160800000Y-63350000D03*
%TD*%
D18*
%TO.C,Q1*%
X145000000Y-92100000D03*
D19*
X146270000Y-93370000D03*
X145000000Y-94640000D03*
%TD*%
D13*
%TO.C,C2*%
X144250000Y-97900000D03*
X146750000Y-97900000D03*
%TD*%
D14*
%TO.C,U1*%
X140400000Y-116200000D03*
D12*
X137860000Y-116200000D03*
X135320000Y-116200000D03*
X132780000Y-116200000D03*
X132780000Y-123820000D03*
X135320000Y-123820000D03*
X137860000Y-123820000D03*
X140400000Y-123820000D03*
%TD*%
D11*
%TO.C,R20*%
X163720000Y-62300000D03*
D12*
X173880000Y-62300000D03*
%TD*%
D15*
%TO.C,RV3*%
X162700000Y-44525000D03*
X172300000Y-44525000D03*
D16*
X165000000Y-52025000D03*
D17*
X167500000Y-52025000D03*
X170000000Y-52025000D03*
%TD*%
D13*
%TO.C,C13*%
X157100000Y-113450000D03*
X157100000Y-110950000D03*
%TD*%
D11*
%TO.C,R14*%
X144020000Y-113300000D03*
D12*
X154180000Y-113300000D03*
%TD*%
D11*
%TO.C,R8*%
X131520000Y-104200000D03*
D12*
X141680000Y-104200000D03*
%TD*%
D20*
%TO.C,C15*%
X140850000Y-63500000D03*
X139350000Y-63500000D03*
%TD*%
D11*
%TO.C,R25*%
X168400000Y-110680000D03*
D12*
X168400000Y-100520000D03*
%TD*%
D11*
%TO.C,R23*%
X162200000Y-110680000D03*
D12*
X162200000Y-100520000D03*
%TD*%
D11*
%TO.C,R7*%
X161820000Y-91700000D03*
D12*
X171980000Y-91700000D03*
%TD*%
D15*
%TO.C,RV1*%
X132700000Y-44625000D03*
X142300000Y-44625000D03*
D16*
X135000000Y-52125000D03*
D17*
X137500000Y-52125000D03*
X140000000Y-52125000D03*
%TD*%
D11*
%TO.C,R5*%
X161820000Y-94700000D03*
D12*
X171980000Y-94700000D03*
%TD*%
D18*
%TO.C,Q2*%
X145000000Y-104760000D03*
D19*
X146270000Y-106030000D03*
X145000000Y-107300000D03*
%TD*%
D11*
%TO.C,R3*%
X131520000Y-98200000D03*
D12*
X141680000Y-98200000D03*
%TD*%
D21*
%TO.C,J5*%
X167000000Y-71799800D03*
X167000000Y-88000000D03*
X173300000Y-71799600D03*
X173300000Y-88000000D03*
X160690000Y-71800000D03*
X160690000Y-88000000D03*
%TD*%
D11*
%TO.C,R4*%
X131520000Y-101200000D03*
D12*
X141680000Y-101200000D03*
%TD*%
D11*
%TO.C,R21*%
X163720000Y-59200000D03*
D12*
X173880000Y-59200000D03*
%TD*%
D20*
%TO.C,C14*%
X139350000Y-55700000D03*
X140850000Y-55700000D03*
%TD*%
D22*
%TO.C,J3*%
X152500000Y-51700000D03*
D23*
X152500000Y-45500000D03*
D24*
X147800000Y-48500000D03*
%TD*%
D13*
%TO.C,C8*%
X138150000Y-67500000D03*
X135650000Y-67500000D03*
%TD*%
D25*
%TO.C,FTSW1*%
X152500000Y-124800000D03*
X157800000Y-124800000D03*
X147200000Y-124800000D03*
X152500000Y-129500000D03*
X157800000Y-129500000D03*
X147200000Y-129500000D03*
X152500000Y-134200000D03*
X157800000Y-134200000D03*
X147200000Y-134200000D03*
%TD*%
D11*
%TO.C,R15*%
X131620000Y-126500000D03*
D12*
X141780000Y-126500000D03*
%TD*%
D11*
%TO.C,R13*%
X144020000Y-110300000D03*
D12*
X154180000Y-110300000D03*
%TD*%
D11*
%TO.C,R2*%
X131520000Y-95100000D03*
D12*
X141680000Y-95100000D03*
%TD*%
D16*
%TO.C,D2*%
X151525000Y-87500000D03*
D17*
X154065000Y-87500000D03*
%TD*%
D13*
%TO.C,C6*%
X129400000Y-118550000D03*
X129400000Y-116050000D03*
%TD*%
D11*
%TO.C,R26*%
X171500000Y-110680000D03*
D12*
X171500000Y-100520000D03*
%TD*%
D13*
%TO.C,C1*%
X150200000Y-94650000D03*
X150200000Y-92150000D03*
%TD*%
D11*
%TO.C,R18*%
X173880000Y-68300000D03*
D12*
X163720000Y-68300000D03*
%TD*%
D13*
%TO.C,C10*%
X160800000Y-68550000D03*
X160800000Y-66050000D03*
%TD*%
D11*
%TO.C,R10*%
X149800000Y-108280000D03*
D12*
X149800000Y-98120000D03*
%TD*%
D11*
%TO.C,R24*%
X165300000Y-110680000D03*
D12*
X165300000Y-100520000D03*
%TD*%
D11*
%TO.C,R19*%
X163720000Y-65200000D03*
D12*
X173880000Y-65200000D03*
%TD*%
D13*
%TO.C,C5*%
X156100000Y-103550000D03*
X156100000Y-106050000D03*
%TD*%
D18*
%TO.C,Q3*%
X158600000Y-94940000D03*
D19*
X157330000Y-93670000D03*
X158600000Y-92400000D03*
%TD*%
D11*
%TO.C,R6*%
X171980000Y-97800000D03*
D12*
X161820000Y-97800000D03*
%TD*%
D13*
%TO.C,C4*%
X156100000Y-98350000D03*
X156100000Y-100850000D03*
%TD*%
D11*
%TO.C,R1*%
X141680000Y-92100000D03*
D12*
X131520000Y-92100000D03*
%TD*%
D13*
%TO.C,C12*%
X160800000Y-58100000D03*
X160800000Y-55600000D03*
%TD*%
D21*
%TO.C,J4*%
X138000000Y-88100200D03*
X138000000Y-71900000D03*
X131700000Y-88100400D03*
X131700000Y-71900000D03*
X144310000Y-88100000D03*
X144310000Y-71900000D03*
%TD*%
D11*
%TO.C,R9*%
X131520000Y-107200000D03*
D12*
X141680000Y-107200000D03*
%TD*%
D11*
%TO.C,R11*%
X152800000Y-108280000D03*
D12*
X152800000Y-98120000D03*
%TD*%
D26*
%TO.C,D1*%
X132700000Y-54720000D03*
D27*
X132700000Y-64880000D03*
%TD*%
D11*
%TO.C,R12*%
X131520000Y-110300000D03*
D12*
X141680000Y-110300000D03*
%TD*%
D11*
%TO.C,R22*%
X163720000Y-56100000D03*
D12*
X173880000Y-56100000D03*
%TD*%
M02*
