M48
; DRILL file {KiCad 8.0.3} date 2024-11-20T17:39:28+0200
; FORMAT={-:-/ absolute / inch / decimal}
; #@! TF.CreationDate,2024-11-20T17:39:28+02:00
; #@! TF.GenerationSoftware,Kicad,Pcbnew,8.0.3
; #@! TF.FileFunction,Plated,1,2,PTH
FMAT,2
INCH
; #@! TA.AperFunction,Plated,PTH,ComponentDrill
T1C0.0236
; #@! TA.AperFunction,Plated,PTH,ComponentDrill
T2C0.0276
; #@! TA.AperFunction,Plated,PTH,ComponentDrill
T3C0.0295
; #@! TA.AperFunction,Plated,PTH,ComponentDrill
T4C0.0315
; #@! TA.AperFunction,Plated,PTH,ComponentDrill
T5C0.0354
; #@! TA.AperFunction,Plated,PTH,ComponentDrill
T6C0.0394
; #@! TA.AperFunction,Plated,PTH,ComponentDrill
T7C0.0433
; #@! TA.AperFunction,Plated,PTH,ComponentDrill
T8C0.0570
; #@! TA.AperFunction,Plated,PTH,ComponentDrill
T9C0.1260
%
G90
G05
T1
X5.4862Y-2.1929
X5.4862Y-2.5
X5.5453Y-2.1929
X5.5453Y-2.5
T2
X5.0945Y-4.5689
X5.0945Y-4.6673
X5.0945Y-4.7697
X5.0945Y-4.8681
X5.3406Y-2.6575
X5.439Y-2.6575
X5.6791Y-3.8543
X5.6791Y-3.9961
X5.7776Y-3.8543
X5.7776Y-3.9961
X5.9134Y-3.628
X5.9134Y-3.7264
X6.0827Y-4.5728
X6.0827Y-4.6713
X6.1457Y-3.872
X6.1457Y-3.9705
X6.1457Y-4.0768
X6.1457Y-4.1752
X6.185Y-4.3681
X6.185Y-4.4665
X6.3307Y-2.189
X6.3307Y-2.2874
X6.3307Y-2.3957
X6.3307Y-2.4941
X6.3307Y-2.6004
X6.3307Y-2.6988
T3
X5.7087Y-3.626
X5.7087Y-3.726
X5.7087Y-4.1244
X5.7087Y-4.2244
X5.7587Y-3.676
X5.7587Y-4.1744
X6.1941Y-3.6878
X6.2441Y-3.6378
X6.2441Y-3.7378
T4
X5.178Y-3.626
X5.178Y-3.7441
X5.178Y-3.8661
X5.178Y-3.9843
X5.178Y-4.1024
X5.178Y-4.2205
X5.178Y-4.3425
X5.1819Y-4.9803
X5.1827Y-5.0984
X5.2276Y-4.5748
X5.2276Y-4.8748
X5.2319Y-4.4567
X5.3276Y-4.5748
X5.3276Y-4.8748
X5.3504Y-2.1425
X5.3504Y-2.5425
X5.4276Y-4.5748
X5.4276Y-4.8748
X5.5276Y-4.5748
X5.5276Y-4.8748
X5.5319Y-4.4567
X5.578Y-3.626
X5.578Y-3.7441
X5.578Y-3.8661
X5.578Y-3.9843
X5.578Y-4.1024
X5.578Y-4.2205
X5.578Y-4.3425
X5.5819Y-4.9803
X5.5827Y-5.0984
X5.6693Y-4.5709
X5.6693Y-4.6693
X5.6701Y-4.3425
X5.6701Y-4.4606
X5.8976Y-3.863
X5.8976Y-4.263
X5.9693Y-4.5709
X5.9693Y-4.6693
X6.0157Y-3.863
X6.0157Y-4.263
X6.0701Y-4.3425
X6.0701Y-4.4606
X6.3709Y-3.6102
X6.3709Y-3.7283
X6.3709Y-3.8504
X6.3858Y-3.9575
X6.3858Y-4.3575
X6.4457Y-2.2087
X6.4457Y-2.3307
X6.4457Y-2.4528
X6.4457Y-2.5669
X6.4457Y-2.689
X6.5079Y-3.9575
X6.5079Y-4.3575
X6.6299Y-3.9575
X6.6299Y-4.3575
X6.752Y-3.9575
X6.752Y-4.3575
X6.7709Y-3.6102
X6.7709Y-3.7283
X6.7709Y-3.8504
X6.8457Y-2.2087
X6.8457Y-2.3307
X6.8457Y-2.4528
X6.8457Y-2.5669
X6.8457Y-2.689
T5
X5.9656Y-3.4449
X6.0656Y-3.4449
T6
X5.315Y-2.0522
X5.4134Y-2.0522
X5.5118Y-2.0522
X5.9055Y-2.7057
X6.0039Y-2.7057
X6.1024Y-2.7057
X6.4961Y-2.0482
X6.5945Y-2.0482
X6.6929Y-2.0482
T7
X5.2244Y-2.1543
X5.2244Y-2.5543
T8
X5.185Y-2.8307
X5.185Y-3.4685
X5.4331Y-2.8307
X5.4331Y-3.4685
X5.6815Y-2.8307
X5.6815Y-3.4685
X6.3264Y-2.8268
X6.3264Y-3.4646
X6.5748Y-2.8268
X6.5748Y-3.4646
X6.8228Y-2.8268
X6.8228Y-3.4646
T9
X5.2165Y-5.2953
X5.4134Y-1.7559
X6.5945Y-1.752
X6.7913Y-5.2953
T6
G00X5.7697Y-4.9134
M15
G01X5.8209Y-4.9134
M16
G05
G00X5.7697Y-5.0984
M15
G01X5.8209Y-5.0984
M16
G05
G00X5.7697Y-5.2835
M15
G01X5.8209Y-5.2835
M16
G05
G00X5.8189Y-1.8701
M15
G01X5.8189Y-1.9488
M16
G05
G00X6.0433Y-1.7913
M15
G01X5.9646Y-1.7913
M16
G05
G00X6.0531Y-2.0354
M15
G01X5.9547Y-2.0354
M16
G05
G00X5.9783Y-4.9134
M15
G01X6.0295Y-4.9134
M16
G05
G00X5.9783Y-5.0984
M15
G01X6.0295Y-5.0984
M16
G05
G00X5.9783Y-5.2835
M15
G01X6.0295Y-5.2835
M16
G05
G00X6.187Y-4.9134
M15
G01X6.2382Y-4.9134
M16
G05
G00X6.187Y-5.0984
M15
G01X6.2382Y-5.0984
M16
G05
G00X6.187Y-5.2835
M15
G01X6.2382Y-5.2835
M16
G05
T7
G00X5.2244Y-1.7707
M15
G01X5.2244Y-1.7431
M16
G05
G00X5.6024Y-1.7707
M15
G01X5.6024Y-1.7431
M16
G05
G00X5.815Y-2.4242
M15
G01X5.815Y-2.3967
M16
G05
G00X6.1929Y-2.4242
M15
G01X6.1929Y-2.3967
M16
G05
G00X6.4055Y-1.7667
M15
G01X6.4055Y-1.7392
M16
G05
G00X6.7835Y-1.7667
M15
G01X6.7835Y-1.7392
M16
G05
M30
